if (_typeface_js && _typeface_js.loadFace) _typeface_js.loadFace({"glyphs":{"0":{"ha":1029,"x_min":0,"x_max":0,"o":"m 515 -15 b 104 515 190 -15 104 194 b 515 1046 104 838 190 1046 b 924 515 836 1046 924 838 b 515 -15 924 194 836 -15 m 515 110 b 786 515 743 110 786 278 b 515 917 786 756 743 917 b 243 515 286 917 243 756 b 515 110 243 278 286 110 "},"1":{"ha":533,"x_min":0,"x_max":0,"o":"m 240 900 l 49 900 l 49 1029 l 372 1029 l 372 0 l 240 0 "},"2":{"ha":839,"x_min":0,"x_max":0,"o":"m 50 113 l 394 443 b 608 771 550 593 608 650 b 401 921 608 875 554 921 b 122 858 290 921 186 893 l 63 969 b 413 1046 153 1018 251 1046 b 743 783 632 1046 743 969 b 504 376 743 628 660 526 l 236 119 l 758 119 l 758 0 l 50 0 "},"3":{"ha":851,"x_min":0,"x_max":0,"o":"m 413 -17 b 24 83 257 -17 146 13 l 92 192 b 407 104 201 132 293 104 b 644 304 574 104 644 150 b 385 497 644 435 597 497 l 232 497 l 232 618 l 382 618 b 615 779 558 618 615 661 b 404 924 615 888 558 924 b 122 851 310 924 200 897 l 50 956 b 415 1046 150 1017 285 1046 b 747 803 636 1046 747 983 b 621 567 747 664 703 592 b 776 294 732 540 776 458 b 413 -17 776 53 640 -17 "},"4":{"ha":939,"x_min":0,"x_max":0,"o":"m 67 354 l 525 1029 l 672 1029 l 217 361 l 583 361 l 611 688 l 708 688 l 708 361 l 893 361 l 893 244 l 708 244 l 708 0 l 582 0 l 582 244 l 67 244 "},"5":{"ha":897,"x_min":0,"x_max":0,"o":"m 442 -15 b 71 85 275 -15 163 31 l 140 193 b 439 104 224 147 313 104 b 700 331 583 104 700 142 b 451 560 700 515 596 560 b 222 513 351 560 289 544 l 108 547 l 135 1029 l 760 1029 l 760 907 l 257 907 l 242 636 b 483 681 289 660 374 681 b 836 335 681 681 836 618 b 442 -15 836 44 669 -15 "},"6":{"ha":972,"x_min":0,"x_max":0,"o":"m 511 -15 b 99 425 231 -15 99 114 b 696 1029 99 856 221 1029 l 753 1029 l 753 907 l 692 907 b 236 597 315 907 256 767 b 551 693 289 664 396 693 b 893 344 814 693 893 561 b 511 -15 893 121 799 -15 m 513 103 b 760 340 710 103 760 196 b 513 579 760 485 704 579 b 238 365 349 579 238 510 b 513 103 238 168 339 103 "},"7":{"ha":761,"x_min":0,"x_max":0,"o":"m 593 907 l 26 907 l 26 1029 l 736 1029 l 736 922 l 338 0 l 196 0 "},"8":{"ha":982,"x_min":0,"x_max":0,"o":"m 490 -19 b 88 289 199 -19 88 104 b 257 565 88 426 138 532 b 122 789 157 599 122 683 b 490 1046 122 938 204 1046 b 858 789 778 1046 858 938 b 725 565 858 683 822 594 b 894 289 849 529 894 425 b 490 -19 894 104 782 -19 m 490 97 b 758 299 678 97 758 167 b 490 500 758 431 678 500 b 224 299 303 500 224 431 b 490 97 224 167 303 97 m 490 614 b 728 774 667 614 728 671 b 490 931 728 875 667 931 b 253 774 314 931 253 875 b 490 614 253 671 314 614 "},"9":{"ha":972,"x_min":0,"x_max":0,"o":"m 224 119 l 285 119 b 742 431 665 119 722 263 b 426 335 688 364 583 335 b 85 683 164 335 85 472 b 467 1046 85 907 179 1046 b 879 606 747 1046 879 917 b 282 0 879 175 757 0 l 224 0 m 464 446 b 740 658 629 446 740 517 b 467 922 740 857 639 922 b 218 685 268 922 218 829 b 464 446 218 539 274 446 "},"å":{"ha":875,"x_min":0,"x_max":0,"o":""},"a":{"ha":875,"x_min":0,"x_max":0,"o":"m 321 -14 b 54 219 108 -14 54 89 b 564 503 54 439 178 503 l 606 503 b 413 664 603 614 576 664 b 185 599 315 664 233 629 l 114 704 b 425 790 165 739 288 790 b 736 481 689 790 736 700 l 736 206 b 813 119 736 131 742 119 l 813 1 b 757 -1 803 -1 785 -1 b 651 32 701 -1 669 10 b 625 86 638 46 631 64 b 321 -14 579 21 496 -14 m 353 103 b 606 340 532 103 606 175 l 606 388 l 571 388 b 183 229 253 388 183 351 b 353 103 183 147 221 103 "},"˚":{"ha":819,"x_min":0,"x_max":0,"o":"m 410 835 b 235 1014 286 835 235 913 b 410 1196 235 1117 286 1196 b 583 1014 528 1196 583 1117 b 410 835 583 913 528 835 m 410 910 b 508 1014 479 910 508 956 b 410 1118 508 1072 479 1118 b 310 1014 338 1118 310 1072 b 410 910 310 956 338 910 "},"ª":{"ha":828,"x_min":0,"x_max":0,"o":"m 307 392 b 88 583 143 392 88 472 b 503 813 88 761 217 813 l 532 813 b 381 940 529 903 507 940 b 200 889 306 940 238 913 l 140 975 b 392 1044 182 1004 281 1044 b 642 793 606 1044 642 972 l 642 575 b 706 504 642 513 647 504 l 706 403 b 663 401 696 403 685 401 b 543 496 583 401 553 415 b 307 392 507 425 446 392 m 332 489 b 532 682 465 489 532 547 l 532 722 l 510 722 b 196 592 267 722 196 694 b 332 489 196 526 235 489 m 146 297 l 644 297 l 644 194 l 146 194 "},"<":{"ha":976,"x_min":0,"x_max":0,"o":"m 147 431 l 147 531 l 774 843 l 774 717 l 286 481 l 774 246 l 774 115 "},"ò":{"ha":888,"x_min":0,"x_max":0,"o":""},"o":{"ha":888,"x_min":0,"x_max":0,"o":"m 443 -15 b 63 388 169 -15 63 124 b 443 790 63 651 169 790 b 825 388 717 790 825 651 b 443 -15 825 124 717 -15 m 443 107 b 688 385 625 107 688 207 b 443 661 688 563 625 661 b 199 385 261 661 199 563 b 443 107 199 207 261 107 "},"`":{"ha":819,"x_min":0,"x_max":0,"o":"m 156 1079 l 321 1079 l 526 851 l 401 851 "},"˘":{"ha":819,"x_min":0,"x_max":0,"o":"m 410 836 b 140 1061 221 836 165 935 l 240 1082 b 410 947 258 1000 292 947 b 579 1082 526 947 561 1000 l 681 1063 b 410 836 653 935 597 836 "},"$":{"ha":931,"x_min":0,"x_max":0,"o":"m 408 1 b 79 103 293 7 181 32 l 143 203 b 414 115 238 142 321 119 l 414 482 b 124 753 258 513 124 558 b 408 1028 124 929 215 1014 l 408 1122 l 532 1122 l 532 1028 b 785 953 638 1019 724 992 l 721 847 b 528 906 672 879 601 899 l 528 583 b 838 301 694 550 838 504 b 532 3 838 124 744 19 l 532 -131 l 408 -131 m 708 292 b 528 460 708 397 646 432 l 528 117 b 708 292 657 131 708 190 m 254 758 b 414 607 254 667 311 632 l 414 907 b 254 758 293 896 254 844 "},"ˆ":{"ha":819,"x_min":0,"x_max":0,"o":"m 336 1079 l 482 1079 l 694 851 l 564 851 l 407 992 l 253 851 l 124 851 "},"ﬅ":{"ha":1044,"x_min":0,"x_max":0,"o":"m 863 -1 b 640 211 679 -1 640 68 l 640 650 l 321 650 l 321 0 l 186 0 l 186 650 l 40 650 l 40 772 l 186 772 l 186 840 b 432 1092 186 993 239 1092 l 521 1092 l 521 974 l 449 974 b 321 840 346 974 321 918 l 321 772 l 644 772 l 668 992 l 774 1013 l 774 772 l 979 772 l 979 650 l 774 650 l 774 229 b 888 119 774 161 785 119 l 979 119 l 979 0 b 863 -1 961 -1 885 -1 "},"Ñ":{"ha":1099,"x_min":0,"x_max":0,"o":""},"N":{"ha":1099,"x_min":0,"x_max":0,"o":"m 117 1029 l 269 1029 l 846 236 l 846 1029 l 982 1029 l 982 0 l 853 0 l 253 824 l 253 0 l 117 0 "},"˜":{"ha":819,"x_min":0,"x_max":0,"o":"m 125 919 b 311 1035 179 986 246 1035 b 504 965 407 1035 436 965 b 615 1042 539 965 576 997 l 694 978 b 507 853 640 910 574 853 b 314 922 421 853 381 922 b 208 854 282 922 243 899 "},",":{"ha":351,"x_min":0,"x_max":0,"o":"m 88 -110 b 174 0 157 -72 174 -54 l 90 0 l 90 183 l 260 183 l 260 47 b 124 -181 260 -83 238 -126 "},"Ý":{"ha":994,"x_min":0,"x_max":0,"o":""},"Y":{"ha":994,"x_min":0,"x_max":0,"o":"m 428 389 l 14 1029 l 167 1029 l 499 517 l 833 1029 l 979 1029 l 567 392 l 567 0 l 428 0 "},"´":{"ha":819,"x_min":0,"x_max":0,"o":"m 499 1079 l 664 1079 l 418 851 l 293 851 "},"Ã":{"ha":1029,"x_min":0,"x_max":0,"o":""},"A":{"ha":1029,"x_min":0,"x_max":0,"o":"m 443 1036 l 586 1036 l 999 0 l 854 0 l 769 217 l 256 217 l 171 0 l 31 0 m 719 346 l 511 868 l 303 346 "},"‰":{"ha":2231,"x_min":0,"x_max":0,"o":"m 349 386 b 57 715 144 386 57 517 b 349 1046 57 913 144 1046 b 636 715 549 1046 636 913 b 349 386 636 517 549 386 m 349 494 b 515 715 475 494 515 588 b 349 933 515 842 474 933 b 179 715 221 933 179 843 b 349 494 179 588 219 494 m 1243 -14 b 954 317 1042 -14 954 117 b 1243 647 954 513 1042 647 b 1533 317 1444 647 1533 513 b 1243 -14 1533 117 1444 -14 m 1243 94 b 1410 317 1371 94 1410 189 b 1243 533 1410 442 1371 533 b 1076 317 1118 533 1076 443 b 1243 94 1076 189 1117 94 m 1885 -14 b 1594 317 1682 -14 1594 117 b 1885 647 1594 513 1682 647 b 2174 317 2085 647 2174 513 b 1885 -14 2174 117 2085 -14 m 1885 94 b 2051 317 2011 94 2051 189 b 1885 533 2051 442 2010 533 b 1717 317 1758 533 1717 443 b 1885 94 1717 189 1757 94 m 1018 1031 l 1146 1031 l 571 0 l 443 0 "},"ç":{"ha":790,"x_min":0,"x_max":0,"o":"m 406 -322 b 238 -281 335 -322 282 -306 l 275 -210 b 400 -242 313 -229 356 -242 b 504 -174 486 -242 504 -212 b 376 -115 504 -124 469 -110 l 343 -92 l 358 -8 b 63 388 128 18 63 171 b 444 790 63 626 142 790 b 732 675 582 790 672 742 l 633 582 b 444 660 597 619 543 660 b 199 385 254 660 199 557 b 444 107 199 213 251 107 b 640 186 528 107 582 133 l 731 100 b 440 -14 651 26 575 -14 l 432 -61 b 597 -182 517 -57 597 -68 b 406 -322 597 -272 542 -322 "},"c":{"ha":790,"x_min":0,"x_max":0,"o":"m 439 -14 b 63 388 143 -14 63 149 b 444 790 63 626 142 790 b 732 675 582 790 672 742 l 633 582 b 444 660 597 619 543 660 b 199 385 254 660 199 557 b 444 107 199 213 251 107 b 640 186 528 107 582 133 l 731 100 b 439 -14 651 26 575 -14 "},"¸":{"ha":819,"x_min":0,"x_max":0,"o":"m 418 -322 b 250 -281 347 -322 294 -306 l 288 -210 b 413 -242 325 -229 368 -242 b 517 -174 499 -242 517 -212 b 389 -115 517 -124 482 -110 l 356 -92 l 375 10 l 457 10 l 444 -61 b 610 -182 529 -57 610 -68 b 418 -322 610 -272 554 -322 "},"÷":{"ha":976,"x_min":0,"x_max":0,"o":"m 413 285 l 564 285 l 564 139 l 413 139 m 143 554 l 833 554 l 833 425 l 143 425 m 413 842 l 564 842 l 564 696 l 413 696 "},"Ž":{"ha":933,"x_min":0,"x_max":0,"o":"m 179 1315 l 311 1315 l 467 1175 l 622 1315 l 750 1315 l 538 1088 l 392 1088 m 58 111 l 681 894 l 82 894 l 82 1029 l 857 1029 l 857 907 l 238 129 l 872 129 l 872 0 l 58 0 "},"Z":{"ha":933,"x_min":0,"x_max":0,"o":"m 58 111 l 681 894 l 82 894 l 82 1029 l 857 1029 l 857 907 l 238 129 l 872 129 l 872 0 l 58 0 "},"ˇ":{"ha":819,"x_min":0,"x_max":0,"o":"m 124 1079 l 256 1079 l 411 939 l 567 1079 l 694 1079 l 482 851 l 336 851 "},"©":{"ha":1147,"x_min":0,"x_max":0,"o":"m 582 169 b 242 521 357 169 242 292 b 586 871 242 761 378 871 b 832 783 685 871 771 842 l 768 715 b 585 782 721 757 657 782 b 338 521 428 782 338 693 b 586 258 338 350 422 258 b 775 326 681 258 735 289 l 836 264 b 582 169 786 214 714 169 m 571 -17 b 57 515 226 -17 57 207 b 571 1047 57 824 226 1047 b 1088 515 917 1047 1088 824 b 571 -17 1088 207 917 -17 m 571 43 b 1028 515 888 43 1028 240 b 571 988 1028 790 888 988 b 118 515 254 988 118 790 b 571 43 118 240 254 43 "},"¥":{"ha":889,"x_min":0,"x_max":0,"o":"m 94 436 l 378 436 l 378 446 l 19 1029 l 163 1029 l 444 563 l 726 1029 l 869 1029 l 511 449 l 511 436 l 794 436 l 794 321 l 511 321 l 511 219 l 794 219 l 794 106 l 511 106 l 511 0 l 378 0 l 378 106 l 94 106 l 94 219 l 378 219 l 378 321 l 94 321 "},"¼":{"ha":1274,"x_min":0,"x_max":0,"o":"m 1013 140 l 696 140 l 696 224 l 982 644 l 1100 644 l 818 231 l 1013 231 l 1033 393 l 1117 393 l 1117 231 l 1221 231 l 1221 140 l 1117 140 l 1117 0 l 1013 0 m 194 931 l 71 931 l 71 1029 l 306 1029 l 306 385 l 194 385 m 833 1029 l 954 1029 l 381 0 l 258 0 "},"û":{"ha":868,"x_min":0,"x_max":0,"o":"m 358 1079 l 504 1079 l 717 851 l 586 851 l 429 992 l 275 851 l 146 851 m 436 -14 b 96 331 139 -14 96 107 l 96 772 l 231 772 l 231 328 b 436 110 231 206 232 110 b 640 332 642 110 640 206 l 640 772 l 772 772 l 772 335 b 436 -14 772 107 733 -14 "},"u":{"ha":868,"x_min":0,"x_max":0,"o":"m 436 -14 b 96 331 139 -14 96 107 l 96 772 l 231 772 l 231 328 b 436 110 231 206 232 110 b 640 332 642 110 640 206 l 640 772 l 772 772 l 772 335 b 436 -14 772 107 733 -14 "},"ë":{"ha":833,"x_min":0,"x_max":0,"o":"m 203 1011 l 326 1011 l 326 856 l 203 856 m 503 1011 l 625 1011 l 625 856 l 503 856 m 442 -15 b 63 388 125 -15 63 164 b 439 790 63 610 131 790 b 764 335 757 790 768 569 l 193 335 b 442 101 201 194 250 101 b 688 178 567 101 628 133 l 760 83 b 442 -15 678 19 588 -15 m 435 671 b 194 454 258 671 206 585 l 636 454 b 435 671 629 576 618 671 "},"e":{"ha":833,"x_min":0,"x_max":0,"o":"m 442 -15 b 63 388 125 -15 63 164 b 439 790 63 610 131 790 b 764 335 757 790 768 569 l 193 335 b 442 101 201 194 250 101 b 688 178 567 101 628 133 l 760 83 b 442 -15 678 19 588 -15 m 435 671 b 194 454 258 671 206 585 l 636 454 b 435 671 629 576 618 671 "},"¨":{"ha":819,"x_min":0,"x_max":0,"o":"m 199 1011 l 322 1011 l 322 856 l 199 856 m 499 1011 l 621 1011 l 621 856 l 499 856 "},"É":{"ha":906,"x_min":0,"x_max":0,"o":"m 539 1315 l 704 1315 l 458 1088 l 333 1088 m 117 1029 l 821 1029 l 821 894 l 257 894 l 257 599 l 807 599 l 807 465 l 257 465 l 257 129 l 826 129 l 826 0 l 117 0 "},"E":{"ha":906,"x_min":0,"x_max":0,"o":"m 117 1029 l 821 1029 l 821 894 l 257 894 l 257 599 l 807 599 l 807 465 l 257 465 l 257 129 l 826 129 l 826 0 l 117 0 "},"ô":{"ha":888,"x_min":0,"x_max":0,"o":"m 368 1079 l 514 1079 l 726 851 l 596 851 l 439 992 l 285 851 l 156 851 m 443 -15 b 63 388 169 -15 63 124 b 443 790 63 651 169 790 b 825 388 717 790 825 651 b 443 -15 825 124 717 -15 m 443 107 b 688 385 625 107 688 207 b 443 661 688 563 625 661 b 199 385 261 661 199 563 b 443 107 199 207 261 107 "},"ø":{"ha":888,"x_min":0,"x_max":0,"o":"m 443 -15 b 278 6 379 -15 324 -8 l 239 -58 l 115 -58 l 183 54 b 63 388 97 121 63 232 b 443 790 63 651 164 790 b 608 768 507 790 561 783 l 647 833 l 771 833 l 704 719 b 825 388 789 653 825 542 b 443 -15 825 124 722 -15 m 443 104 b 690 385 628 104 690 206 b 626 601 690 481 672 554 l 339 118 b 443 104 368 108 403 104 m 196 385 b 258 168 196 289 214 215 l 543 650 b 443 664 514 658 481 664 b 196 385 258 664 196 564 "},"»":{"ha":974,"x_min":0,"x_max":0,"o":"m 371 386 l 171 772 l 290 772 l 500 386 l 290 0 l 171 0 m 710 386 l 510 772 l 631 772 l 840 386 l 631 0 l 510 0 "},"ê":{"ha":833,"x_min":0,"x_max":0,"o":"m 340 1079 l 486 1079 l 699 851 l 568 851 l 411 992 l 257 851 l 128 851 m 442 -15 b 63 388 125 -15 63 164 b 439 790 63 610 131 790 b 764 335 757 790 768 569 l 193 335 b 442 101 201 194 250 101 b 688 178 567 101 628 133 l 760 83 b 442 -15 678 19 588 -15 m 435 671 b 194 454 258 671 206 585 l 636 454 b 435 671 629 576 618 671 "},"D":{"ha":1057,"x_min":0,"x_max":0,"o":"m 117 1029 l 461 1029 b 1001 515 853 1029 1001 915 b 446 0 1001 122 839 0 l 117 0 m 453 129 b 860 515 765 129 860 232 b 463 896 860 803 781 896 l 257 896 l 257 129 "},"H":{"ha":1099,"x_min":0,"x_max":0,"o":"m 117 1029 l 257 1029 l 257 604 l 842 604 l 842 1029 l 982 1029 l 982 0 l 842 0 l 842 465 l 257 465 l 257 0 l 117 0 "},"L":{"ha":826,"x_min":0,"x_max":0,"o":"m 117 1029 l 257 1029 l 257 129 l 793 129 l 793 0 l 117 0 "},"P":{"ha":1000,"x_min":0,"x_max":0,"o":"m 117 1029 l 579 1029 b 943 714 839 1029 943 925 b 575 372 943 501 842 372 l 254 372 l 254 0 l 117 0 m 579 500 b 803 707 726 500 803 556 b 576 899 803 861 729 899 l 254 899 l 254 500 "},"ž":{"ha":711,"x_min":0,"x_max":0,"o":"m 72 1079 l 204 1079 l 360 939 l 515 1079 l 643 1079 l 431 851 l 285 851 m 42 99 l 482 650 l 64 650 l 64 772 l 658 772 l 658 671 l 217 115 l 674 115 l 674 0 l 42 0 "},"z":{"ha":711,"x_min":0,"x_max":0,"o":"m 42 99 l 482 650 l 64 650 l 64 772 l 658 772 l 658 671 l 217 115 l 674 115 l 674 0 l 42 0 "},"T":{"ha":963,"x_min":0,"x_max":0,"o":"m 411 894 l 33 894 l 33 1029 l 931 1029 l 931 894 l 553 894 l 553 0 l 411 0 "},"_":{"ha":629,"x_min":0,"x_max":0,"o":"m -51 -74 l 681 -74 l 681 -183 l -51 -183 "},"X":{"ha":1011,"x_min":0,"x_max":0,"o":"m 500 433 l 206 0 l 50 0 l 426 539 l 85 1029 l 240 1029 l 510 644 l 772 1029 l 928 1029 l 583 539 l 963 0 l 804 0 "},"Ï":{"ha":394,"x_min":0,"x_max":0,"o":""},"I":{"ha":394,"x_min":0,"x_max":0,"o":"m 128 1029 l 267 1029 l 267 0 l 128 0 "},"Ü":{"ha":1094,"x_min":0,"x_max":0,"o":"m 333 1247 l 457 1247 l 457 1092 l 333 1092 m 633 1247 l 756 1247 l 756 1092 l 633 1092 m 546 -18 b 110 378 163 -18 110 176 l 110 1029 l 250 1029 l 250 394 b 547 114 250 226 301 114 b 850 394 794 114 850 224 l 850 1029 l 986 1029 l 986 378 b 546 -18 986 175 929 -18 "},"U":{"ha":1094,"x_min":0,"x_max":0,"o":"m 546 -18 b 110 378 163 -18 110 176 l 110 1029 l 250 1029 l 250 394 b 547 114 250 226 301 114 b 850 394 794 114 850 224 l 850 1029 l 986 1029 l 986 378 b 546 -18 986 175 929 -18 "},"|":{"ha":469,"x_min":0,"x_max":0,"o":"m 165 1078 l 303 1078 l 303 -229 l 165 -229 "},"d":{"ha":911,"x_min":0,"x_max":0,"o":"m 394 -14 b 63 390 136 -14 63 153 b 399 789 63 625 138 789 b 675 696 560 789 638 758 l 675 1078 l 811 1078 l 811 6 l 707 -4 l 692 86 b 394 -14 643 18 560 -14 m 424 110 b 675 390 606 110 675 186 b 424 663 675 593 610 663 b 200 390 246 663 200 558 b 424 110 200 219 246 110 "},"h":{"ha":878,"x_min":0,"x_max":0,"o":"m 100 1078 l 235 1078 l 235 706 b 503 790 265 750 339 790 b 781 471 747 790 781 661 l 781 0 l 646 0 l 646 444 b 460 657 646 569 635 657 b 236 428 269 657 236 561 l 236 0 l 100 0 "},"Œ":{"ha":1751,"x_min":0,"x_max":0,"o":"m 975 136 b 582 -17 894 35 764 -17 b 57 515 243 -17 57 142 b 582 1046 57 888 243 1046 b 975 893 764 1046 894 994 l 975 1029 l 1667 1029 l 1667 894 l 1103 894 l 1103 596 l 1653 596 l 1653 467 l 1103 467 l 1103 129 l 1672 129 l 1672 0 l 975 0 m 582 114 b 967 513 860 114 967 257 b 582 911 967 768 860 911 b 199 513 304 911 199 768 b 582 114 199 257 304 114 "},"ÿ":{"ha":757,"x_min":0,"x_max":0,"o":"m 178 -233 b 107 -232 164 -233 124 -233 l 107 -122 l 167 -122 b 286 -51 242 -122 268 -107 l 310 8 l 10 772 l 154 772 l 381 169 l 606 772 l 747 772 l 419 -65 b 178 -233 375 -185 315 -233 m 164 1011 l 288 1011 l 288 856 l 164 856 m 464 1011 l 586 1011 l 586 856 l 464 856 "},"y":{"ha":756,"x_min":0,"x_max":0,"o":"m 178 -233 b 107 -232 164 -233 124 -233 l 107 -122 l 167 -122 b 286 -51 242 -122 268 -107 l 310 8 l 10 772 l 154 772 l 381 169 l 606 772 l 747 772 l 419 -65 b 178 -233 375 -185 315 -233 "},"l":{"ha":424,"x_min":0,"x_max":0,"o":"m 282 -1 b 108 200 153 -1 108 53 l 108 1078 l 242 1078 l 242 215 b 328 119 242 143 253 119 b 358 119 329 119 356 119 l 358 1 b 282 -1 346 0 315 -1 "},"Ì":{"ha":394,"x_min":0,"x_max":0,"o":"m -86 1318 l 83 1318 l 267 1089 l 139 1089 m 128 1029 l 267 1029 l 267 0 l 128 0 "},"ö":{"ha":888,"x_min":0,"x_max":0,"o":"m 231 1011 l 354 1011 l 354 856 l 231 856 m 531 1011 l 653 1011 l 653 856 l 531 856 m 443 -15 b 63 388 169 -15 63 124 b 443 790 63 651 169 790 b 825 388 717 790 825 651 b 443 -15 825 124 717 -15 m 443 107 b 688 385 625 107 688 207 b 443 661 688 563 625 661 b 199 385 261 661 199 563 b 443 107 199 207 261 107 "},"º":{"ha":829,"x_min":0,"x_max":0,"o":"m 415 394 b 107 721 203 394 107 508 b 415 1046 107 933 203 1046 b 722 721 624 1046 722 933 b 415 394 722 508 624 394 m 415 499 b 608 718 547 499 608 576 b 415 938 608 860 547 938 b 221 718 281 938 221 860 b 415 499 221 576 281 499 m 146 297 l 683 297 l 683 192 l 146 192 "},"²":{"ha":654,"x_min":0,"x_max":0,"o":"m 115 476 l 318 668 b 447 863 426 772 447 793 b 322 950 447 921 415 950 b 160 913 256 950 199 932 l 108 997 b 333 1044 167 1026 229 1044 b 553 874 479 1044 553 996 b 399 619 553 772 506 722 l 263 486 l 553 486 l 553 394 l 115 394 "},"t":{"ha":581,"x_min":0,"x_max":0,"o":"m 40 772 l 181 772 l 204 992 l 311 1013 l 311 772 l 515 772 l 515 650 l 311 650 l 311 229 b 422 119 311 161 319 119 l 515 119 l 515 0 b 399 -1 499 -1 419 -1 b 176 211 215 -1 176 68 l 176 650 l 40 650 "},"¿":{"ha":936,"x_min":0,"x_max":0,"o":"m 456 -14 b 107 240 194 -14 107 68 b 300 504 107 378 178 440 b 431 751 426 571 442 601 l 563 751 b 401 428 578 561 544 500 b 246 253 285 364 246 338 b 464 114 246 168 275 114 b 761 185 576 114 678 142 l 822 67 b 456 -14 731 17 586 -14 m 413 1032 l 582 1032 l 582 868 l 413 868 "},"¡":{"ha":514,"x_min":0,"x_max":0,"o":"m 197 735 l 317 735 l 331 0 l 182 0 m 172 1029 l 342 1029 l 342 849 l 172 849 "},"×":{"ha":976,"x_min":0,"x_max":0,"o":"m 188 272 l 404 489 l 188 706 l 271 793 l 489 575 l 704 793 l 788 706 l 571 489 l 788 274 l 704 188 l 489 404 l 269 188 "},")":{"ha":679,"x_min":0,"x_max":0,"o":"m 135 -189 b 386 418 249 -76 386 113 b 135 1029 386 722 243 931 l 229 1100 b 525 418 361 989 525 751 b 229 -258 525 103 361 -147 "},"£":{"ha":871,"x_min":0,"x_max":0,"o":"m 579 -11 b 296 60 474 -11 371 19 b 54 0 249 21 174 0 l 54 117 b 246 267 233 117 246 161 b 207 475 246 322 228 396 l 44 475 l 44 585 l 178 585 b 147 774 161 653 147 718 b 463 1047 147 936 225 1047 b 744 993 575 1047 660 1029 l 690 875 b 460 919 622 907 540 919 b 281 757 319 919 281 856 b 308 585 281 710 293 649 l 611 585 l 611 475 l 335 475 b 368 269 353 401 368 328 b 357 161 368 229 365 193 b 576 110 418 133 496 110 b 699 244 682 110 699 149 l 699 281 l 817 281 l 817 240 b 579 -11 817 58 758 -11 "},"–":{"ha":990,"x_min":0,"x_max":0,"o":"m 67 499 l 924 499 l 924 372 l 67 372 "},"·":{"ha":351,"x_min":0,"x_max":0,"o":"m 90 567 l 260 567 l 260 381 l 90 381 "},"Õ":{"ha":1165,"x_min":0,"x_max":0,"o":""},"O":{"ha":1165,"x_min":0,"x_max":0,"o":"m 582 -17 b 57 515 253 -17 57 142 b 582 1046 57 888 253 1046 b 1107 515 911 1046 1107 888 b 582 -17 1107 142 911 -17 m 582 114 b 967 513 850 114 967 257 b 582 911 967 768 850 911 b 199 513 314 911 199 768 b 582 114 199 257 314 114 "},"‚":{"ha":351,"x_min":0,"x_max":0,"o":"m 88 -100 b 174 19 157 -62 174 -42 l 90 19 l 90 204 l 260 204 l 260 65 b 124 -171 260 -58 238 -117 "},"™":{"ha":1517,"x_min":0,"x_max":0,"o":"m 682 1029 l 799 1029 l 1004 536 l 1208 1029 l 1326 1029 l 1326 397 l 1224 397 l 1224 846 l 1039 397 l 967 397 l 781 846 l 781 397 l 682 397 m 299 932 l 83 932 l 83 1029 l 618 1029 l 618 932 l 403 932 l 403 397 l 299 397 "},"¬":{"ha":1156,"x_min":0,"x_max":0,"o":"m 175 167 b 50 515 97 260 50 382 b 175 863 50 647 97 769 b 185 854 175 863 179 860 b 64 515 110 763 64 644 b 186 176 64 386 110 268 b 175 167 179 171 175 167 m 317 293 b 238 515 268 353 238 431 b 315 738 238 600 267 676 b 326 728 319 735 322 731 b 251 515 281 671 251 596 b 326 303 251 435 279 360 b 317 293 324 299 319 296 m 367 338 b 304 515 328 386 304 447 b 367 693 304 582 328 644 b 378 683 371 690 374 686 b 318 515 340 638 318 579 b 378 347 318 451 340 393 b 367 338 374 344 371 340 m 439 401 b 400 515 414 433 400 472 b 439 628 400 558 414 597 b 449 618 442 625 446 622 b 414 515 428 590 414 554 b 450 411 414 476 428 440 b 439 401 446 408 443 404 m 485 444 b 463 515 471 464 463 489 b 485 586 463 542 471 567 b 496 576 489 583 492 579 b 476 515 483 558 476 538 b 496 454 476 493 483 472 b 485 444 492 451 489 449 m 525 481 b 515 515 519 490 515 503 b 525 550 515 528 519 540 b 533 543 531 546 533 543 b 526 515 529 535 526 525 b 533 488 526 506 529 496 b 525 481 533 488 531 485 m 578 83 b 299 190 469 83 372 124 b 308 200 299 190 308 201 b 578 97 381 136 475 97 b 846 200 681 97 775 136 b 856 189 849 196 853 193 b 578 83 782 124 685 83 m 578 450 b 540 463 564 450 551 454 b 549 471 543 464 549 471 b 578 461 557 465 567 461 b 607 471 589 461 599 464 b 614 463 607 471 610 468 b 578 450 604 454 592 450 m 669 443 b 660 453 667 447 664 450 b 679 515 672 471 679 493 b 660 576 679 539 672 560 b 669 586 660 576 671 586 b 693 515 685 567 693 542 b 669 443 693 489 685 464 m 406 374 b 357 515 375 413 357 463 b 407 657 357 569 375 618 l 417 647 b 371 515 389 611 371 565 b 417 383 371 465 389 419 b 406 374 414 381 410 376 m 578 -24 b 228 111 444 -24 321 28 l 238 122 b 578 -10 328 40 447 -10 b 917 121 708 -10 826 40 b 926 111 917 122 926 111 b 578 -24 833 26 711 -24 m 578 168 b 354 253 492 168 414 200 l 364 264 b 578 182 421 213 496 182 b 790 264 660 182 735 213 b 800 253 793 260 797 257 b 578 168 742 200 664 168 m 578 236 b 399 304 510 236 447 263 l 408 314 b 578 250 454 274 513 250 b 746 314 642 250 701 274 b 756 303 749 310 753 307 b 578 236 708 261 646 236 m 578 290 b 435 343 524 290 474 311 l 444 354 b 578 304 481 324 528 304 b 711 354 628 304 675 324 b 719 343 714 351 717 347 b 578 290 682 311 632 290 m 578 368 b 486 401 543 368 511 381 l 496 413 b 578 382 518 393 547 382 b 658 413 608 382 636 393 b 668 401 661 408 665 406 b 578 368 643 381 613 368 m 497 618 b 486 629 492 622 488 628 b 578 663 511 650 543 663 b 669 629 613 663 644 650 l 658 618 b 578 649 636 638 608 649 b 497 618 547 649 519 638 m 792 767 b 578 849 735 818 660 849 b 365 768 496 849 422 818 l 356 778 b 578 863 415 831 493 863 b 801 778 664 863 742 831 b 792 767 799 774 794 769 m 631 481 b 622 488 625 485 622 488 b 629 515 626 496 629 506 b 622 543 629 525 626 535 l 631 550 b 640 515 636 540 640 528 b 631 481 640 503 636 490 m 650 463 b 639 472 646 467 643 469 b 653 515 647 485 653 500 b 639 558 653 531 647 546 l 650 568 b 667 515 661 553 667 535 b 650 463 667 496 661 478 m 692 425 b 681 435 688 428 683 432 b 707 515 697 457 707 485 b 681 596 707 546 697 574 l 690 606 b 721 515 710 581 721 549 b 692 425 721 482 710 451 m 750 374 b 739 383 746 376 743 381 b 785 515 767 419 785 465 b 738 647 785 565 767 611 l 749 657 b 799 515 781 618 799 569 b 750 374 799 461 781 413 m 789 338 b 778 347 786 340 782 344 b 838 515 815 393 838 451 b 778 683 838 579 815 638 l 789 693 b 851 515 828 644 851 583 b 789 338 851 447 828 386 m 839 293 b 828 303 839 293 835 296 b 904 515 876 361 904 435 b 828 728 904 596 876 671 l 839 738 b 918 515 889 678 918 600 b 839 293 918 431 889 353 m 901 238 b 892 246 899 240 894 243 b 988 515 951 319 988 413 b 890 783 988 618 951 711 l 901 793 b 1001 515 964 718 1001 621 b 901 238 1001 410 964 313 m 981 167 b 969 176 981 167 976 171 b 1092 515 1046 268 1092 386 b 969 854 1092 644 1046 763 l 981 864 b 1106 515 1058 771 1106 649 b 981 167 1106 383 1058 261 m 254 236 b 154 515 192 313 154 408 b 253 793 154 621 192 718 b 264 783 256 790 260 788 b 168 515 204 711 168 617 b 264 246 168 413 204 318 l 254 236 m 464 425 b 435 515 446 450 435 481 b 464 606 435 549 446 581 b 475 596 468 603 472 599 b 449 515 458 574 449 546 b 475 436 449 486 458 458 l 464 425 m 506 463 b 489 515 494 478 489 496 b 506 568 489 535 494 553 b 515 558 508 564 513 561 b 503 515 508 546 503 531 b 515 472 503 500 508 485 l 506 463 m 542 568 b 578 581 551 576 564 581 b 614 568 592 581 604 576 b 607 560 610 564 607 560 b 578 569 599 565 589 569 b 549 560 567 569 557 567 m 524 588 b 578 607 539 600 557 607 b 631 588 597 607 615 600 b 622 578 628 585 625 582 b 578 594 610 589 594 594 b 533 578 561 594 546 588 m 506 608 b 578 635 525 625 551 635 b 650 608 606 635 631 625 b 640 597 644 603 640 597 b 578 621 624 613 601 621 b 515 597 554 621 532 613 m 400 728 b 578 794 447 769 510 794 b 756 726 646 794 708 769 b 747 717 757 726 747 717 b 578 781 701 757 642 781 b 410 717 514 781 454 757 m 578 333 b 463 375 533 333 493 349 l 472 386 b 578 347 501 363 539 347 b 682 386 618 347 654 363 l 692 376 b 578 333 661 350 622 333 m 578 396 b 504 422 550 396 525 406 l 514 433 b 578 410 532 419 554 410 b 640 433 601 410 622 418 l 650 422 b 578 396 631 406 606 396 m 578 424 b 522 443 557 424 539 431 l 532 453 b 578 436 546 443 561 436 b 622 453 594 436 610 443 l 632 443 b 578 424 617 431 597 424 m 464 654 b 578 697 494 681 535 697 b 692 656 621 697 661 682 l 682 644 b 578 683 654 668 618 683 b 474 644 539 683 503 669 m 435 688 b 578 740 474 721 524 740 b 719 686 632 740 682 719 l 711 676 b 578 726 675 708 629 726 b 444 676 528 726 481 707 m 847 829 b 578 933 776 894 682 933 b 308 831 475 933 381 894 l 299 840 b 578 947 374 907 471 947 b 857 840 685 947 782 907 l 847 829 m 229 919 b 578 1054 322 1004 444 1054 b 928 919 711 1054 835 1003 l 918 908 b 578 1040 828 990 708 1040 b 239 908 447 1040 329 990 m 707 413 b 742 515 728 440 742 476 b 706 619 742 554 728 590 l 717 629 b 756 515 742 597 756 558 b 717 403 756 472 742 433 "},"à":{"ha":875,"x_min":0,"x_max":0,"o":""},"ä":{"ha":875,"x_min":0,"x_max":0,"o":""},"ı":{"ha":350,"x_min":0,"x_max":0,"o":"m 108 772 l 242 772 l 242 0 l 108 0 "},"Š":{"ha":990,"x_min":0,"x_max":0,"o":"m 207 1315 l 339 1315 l 494 1175 l 650 1315 l 778 1315 l 565 1088 l 419 1088 m 500 -14 b 57 108 332 -14 185 22 l 128 217 b 496 110 247 139 371 110 b 785 289 706 110 785 164 b 494 467 785 417 672 438 b 111 760 258 506 111 546 b 497 1046 111 967 240 1046 b 872 951 671 1046 790 1006 l 796 836 b 497 917 725 883 613 917 b 250 763 319 917 250 871 b 529 593 250 646 351 624 b 924 296 760 554 924 519 b 500 -14 924 90 797 -14 "},"S":{"ha":990,"x_min":0,"x_max":0,"o":"m 493 -14 b 50 108 325 -14 178 22 l 121 217 b 489 110 240 139 364 110 b 778 289 699 110 778 164 b 488 467 778 417 665 438 b 104 760 251 506 104 546 b 490 1046 104 967 233 1046 b 865 951 664 1046 783 1006 l 789 836 b 490 917 718 883 606 917 b 243 763 313 917 243 871 b 522 593 243 646 344 624 b 917 296 753 554 917 519 b 493 -14 917 90 790 -14 "},"{":{"ha":713,"x_min":0,"x_max":0,"o":"m 457 -229 b 211 -44 279 -229 211 -168 b 286 294 211 43 286 224 b 108 365 286 354 239 365 l 108 482 b 286 556 232 482 286 489 b 211 893 286 625 211 806 b 457 1078 211 1017 279 1078 l 582 1078 l 582 954 l 485 954 b 350 857 378 954 350 926 b 421 532 350 796 421 615 b 339 425 421 481 397 442 b 421 317 399 406 421 368 b 350 -11 421 233 350 50 b 485 -110 350 -82 378 -110 l 582 -110 l 582 -229 l 457 -229 "},"è":{"ha":833,"x_min":0,"x_max":0,"o":""},"Ä":{"ha":1029,"x_min":0,"x_max":0,"o":""},"°":{"ha":790,"x_min":0,"x_max":0,"o":"m 394 382 b 85 714 175 382 85 524 b 394 1046 85 904 175 1046 b 706 714 614 1046 706 904 b 394 382 706 524 614 382 m 394 489 b 594 711 540 489 594 581 b 394 933 594 840 540 933 b 196 711 249 933 196 840 b 394 489 196 581 249 489 "},"Ö":{"ha":1165,"x_min":0,"x_max":0,"o":"m 369 1247 l 493 1247 l 493 1092 l 369 1092 m 669 1247 l 792 1247 l 792 1092 l 669 1092 m 582 -17 b 57 515 253 -17 57 142 b 582 1046 57 888 253 1046 b 1107 515 911 1046 1107 888 b 582 -17 1107 142 911 -17 m 582 114 b 967 513 850 114 967 257 b 582 911 967 768 850 911 b 199 513 314 911 199 768 b 582 114 199 257 314 114 "},"p":{"ha":911,"x_min":0,"x_max":0,"o":"m 100 765 l 207 772 l 218 690 b 518 790 260 756 346 790 b 849 388 778 790 849 625 b 513 -12 849 153 775 -12 b 236 81 351 -12 275 18 l 236 -229 l 100 -229 m 489 110 b 711 383 664 110 711 214 b 489 661 711 553 667 661 b 236 383 307 661 236 589 b 489 110 236 179 303 110 "},"§":{"ha":778,"x_min":0,"x_max":0,"o":"m 214 -11 b 125 -8 183 -11 139 -10 l 125 104 l 200 104 b 326 236 315 104 326 160 l 326 308 b 78 514 161 321 78 385 b 308 722 78 640 156 707 l 308 786 b 556 1039 308 928 338 1039 b 646 1036 586 1039 632 1038 l 646 919 l 571 919 b 443 788 454 919 443 864 l 443 724 b 700 514 613 713 700 647 b 461 310 700 388 619 324 l 461 242 b 214 -11 461 101 433 -11 m 388 400 b 589 511 524 400 589 432 b 388 622 589 592 524 622 b 190 511 253 622 190 592 b 388 400 190 432 253 400 "},"¯":{"ha":819,"x_min":0,"x_max":0,"o":"m 149 958 l 671 958 l 671 843 l 149 843 "},"Î":{"ha":394,"x_min":0,"x_max":0,"o":"m 125 1318 l 268 1318 l 451 1089 l 319 1089 l 194 1229 l 71 1089 l -58 1089 m 128 1029 l 267 1029 l 267 0 l 128 0 "},"½":{"ha":1363,"x_min":0,"x_max":0,"o":"m 817 82 l 1019 274 b 1150 468 1128 378 1150 399 b 1025 556 1150 526 1118 556 b 858 518 958 556 899 538 l 810 604 b 1038 651 869 633 932 651 b 1256 479 1182 651 1256 603 b 1101 224 1256 378 1214 332 l 965 92 l 1256 92 l 1256 0 l 817 0 m 194 931 l 71 931 l 71 1029 l 306 1029 l 306 385 l 194 385 m 833 1029 l 954 1029 l 381 0 l 258 0 "},"ñ":{"ha":878,"x_min":0,"x_max":0,"o":""},"n":{"ha":878,"x_min":0,"x_max":0,"o":"m 100 765 l 207 772 l 218 699 b 503 790 254 747 328 790 b 781 471 747 790 781 661 l 781 0 l 646 0 l 646 444 b 460 657 646 569 635 657 b 236 428 269 657 236 561 l 236 0 l 100 0 "},"r":{"ha":504,"x_min":0,"x_max":0,"o":"m 100 765 l 207 772 l 221 678 b 482 782 251 733 346 779 l 482 646 b 236 407 296 644 236 549 l 236 0 l 100 0 "},"&":{"ha":1122,"x_min":0,"x_max":0,"o":"m 414 -14 b 65 261 175 -14 65 72 b 342 599 65 439 178 531 b 326 768 331 658 326 715 b 586 1046 326 979 443 1046 b 799 833 714 1046 799 983 b 492 525 799 665 671 593 b 565 367 510 471 533 417 b 707 206 610 297 654 244 b 858 569 781 288 817 414 l 974 543 b 808 151 931 381 885 247 b 1021 122 865 132 935 122 l 1035 122 l 1035 0 l 1017 0 b 707 58 888 0 789 18 b 414 -14 632 11 539 -14 m 414 100 b 599 131 489 100 549 110 b 456 299 547 174 501 229 b 368 493 417 360 388 426 b 196 272 257 439 196 378 b 414 100 196 171 240 100 m 456 768 b 467 631 456 726 458 679 b 676 826 610 683 676 726 b 583 926 676 903 636 926 b 456 768 507 926 456 883 "},"/":{"ha":715,"x_min":0,"x_max":0,"o":"m 576 1029 l 715 1029 l 139 0 l 0 0 "},"ã":{"ha":875,"x_min":0,"x_max":0,"o":""},"Â":{"ha":1029,"x_min":0,"x_max":0,"o":""},"…":{"ha":1007,"x_min":0,"x_max":0,"o":"m 90 183 l 260 183 l 260 0 l 90 0 m 418 183 l 588 183 l 588 0 l 418 0 m 747 183 l 917 183 l 917 0 l 747 0 "},"›":{"ha":610,"x_min":0,"x_max":0,"o":"m 357 386 l 156 772 l 281 772 l 490 386 l 281 0 l 156 0 "},"˙":{"ha":819,"x_min":0,"x_max":0,"o":"m 342 1011 l 478 1011 l 478 850 l 342 850 "},"Ø":{"ha":1165,"x_min":0,"x_max":0,"o":"m 582 -17 b 357 14 497 -17 422 -7 l 317 -57 l 182 -57 l 250 63 b 57 515 124 144 57 290 b 582 1046 57 888 243 1046 b 793 1018 661 1046 732 1036 l 833 1088 l 967 1088 l 901 974 b 1107 515 1036 894 1107 746 b 582 -17 1107 142 922 -17 m 582 110 b 971 513 864 110 971 254 b 829 856 971 674 929 790 l 418 131 b 582 110 464 117 518 110 m 194 513 b 322 178 194 358 232 244 l 731 897 b 582 915 688 908 639 915 b 194 513 301 915 194 771 "},"C":{"ha":1015,"x_min":0,"x_max":0,"o":"m 571 -15 b 57 515 214 -15 57 169 b 578 1046 57 878 247 1046 b 950 911 735 1046 857 1000 l 849 810 b 576 911 778 875 689 911 b 199 514 324 911 199 778 b 578 117 199 254 314 117 b 857 222 726 117 796 164 l 957 126 b 571 -15 883 53 779 -15 "},"“":{"ha":622,"x_min":0,"x_max":0,"o":"m 90 796 b 226 1029 90 926 114 975 l 261 958 b 176 843 192 922 176 901 l 257 843 l 257 661 l 90 661 m 367 796 b 500 1029 367 926 388 975 l 536 958 b 450 843 467 922 450 901 l 531 843 l 531 661 l 367 661 "},"G":{"ha":1088,"x_min":0,"x_max":0,"o":"m 569 -15 b 57 515 192 -15 57 167 b 576 1046 57 886 243 1046 b 963 913 776 1046 892 983 l 863 810 b 576 911 800 865 721 911 b 197 514 319 911 197 782 b 575 110 197 242 296 110 b 892 417 831 110 892 213 l 892 446 l 560 446 l 560 571 l 1031 571 l 1031 442 b 569 -15 1031 158 947 -15 "},"”":{"ha":622,"x_min":0,"x_max":0,"o":"m 88 731 b 172 847 156 767 172 788 l 90 847 l 90 1029 l 257 1029 l 257 893 b 122 661 257 763 235 715 m 360 731 b 447 847 429 767 447 788 l 367 847 l 367 1029 l 531 1029 l 531 893 b 397 661 531 763 508 715 "},"M":{"ha":1293,"x_min":0,"x_max":0,"o":"m 117 1029 l 300 1029 l 647 197 l 996 1029 l 1176 1029 l 1176 0 l 1039 0 l 1039 794 l 703 0 l 586 0 l 251 793 l 251 0 l 117 0 "},"K":{"ha":999,"x_min":0,"x_max":0,"o":"m 444 521 l 254 308 l 254 0 l 117 0 l 117 1029 l 254 1029 l 254 489 l 739 1029 l 900 1029 l 536 624 l 950 0 l 790 0 "},"‘":{"ha":351,"x_min":0,"x_max":0,"o":"m 90 796 b 228 1033 90 929 114 976 l 264 961 b 178 843 194 924 178 901 l 260 843 l 260 657 l 90 657 "},"W":{"ha":1504,"x_min":0,"x_max":0,"o":"m 43 1029 l 189 1029 l 439 228 l 694 1029 l 818 1029 l 1074 228 l 1324 1029 l 1461 1029 l 1135 -7 l 1011 -7 l 753 800 l 496 -7 l 371 -7 "},"x":{"ha":772,"x_min":0,"x_max":0,"o":"m 381 306 l 169 0 l 22 0 l 310 403 l 47 772 l 197 772 l 390 501 l 581 772 l 726 772 l 461 401 l 750 0 l 599 0 "},"â":{"ha":875,"x_min":0,"x_max":0,"o":""},"!":{"ha":514,"x_min":0,"x_max":0,"o":"m 172 181 l 340 181 l 340 0 l 172 0 m 182 1029 l 331 1029 l 315 294 l 197 294 "},"î":{"ha":350,"x_min":0,"x_max":0,"o":"m 106 1079 l 243 1079 l 413 851 l 283 851 l 174 992 l 61 851 l -62 851 m 108 772 l 242 772 l 242 0 l 108 0 "},"Å":{"ha":1029,"x_min":0,"x_max":0,"o":"m 419 976 b 335 1138 360 1006 335 1065 b 510 1319 335 1240 386 1319 b 683 1138 628 1319 683 1240 b 607 982 683 1069 658 1013 l 999 0 l 854 0 l 769 217 l 256 217 l 171 0 l 31 0 m 719 346 l 511 868 l 303 346 m 410 1138 b 479 1036 410 1088 429 1047 l 538 1036 b 608 1138 588 1047 608 1088 b 510 1242 608 1196 579 1242 b 410 1138 438 1242 410 1196 "},"˛":{"ha":819,"x_min":0,"x_max":0,"o":"m 417 -314 b 246 -182 275 -314 246 -258 b 390 10 246 -86 336 -18 l 485 10 b 343 -168 399 -42 343 -106 b 436 -231 343 -203 358 -231 b 563 -200 483 -231 528 -215 l 590 -271 b 417 -314 540 -294 481 -314 "},"k":{"ha":775,"x_min":0,"x_max":0,"o":"m 100 1078 l 233 1078 l 233 375 l 575 772 l 725 772 l 451 451 l 753 0 l 603 0 l 361 353 l 233 207 l 233 0 l 100 0 "},"‹":{"ha":610,"x_min":0,"x_max":0,"o":"m 121 385 l 331 772 l 453 772 l 253 385 l 453 0 l 331 0 "},"=":{"ha":976,"x_min":0,"x_max":0,"o":"m 151 397 l 826 397 l 826 271 l 151 271 m 151 707 l 826 707 l 826 582 l 151 582 "},"Ë":{"ha":906,"x_min":0,"x_max":0,"o":"m 244 1247 l 368 1247 l 368 1092 l 244 1092 m 544 1247 l 667 1247 l 667 1092 l 544 1092 m 117 1029 l 821 1029 l 821 894 l 257 894 l 257 599 l 807 599 l 807 465 l 257 465 l 257 129 l 826 129 l 826 0 l 117 0 "},"Ù":{"ha":1094,"x_min":0,"x_max":0,"o":""},"+":{"ha":976,"x_min":0,"x_max":0,"o":"m 421 425 l 143 425 l 143 554 l 421 554 l 421 831 l 554 831 l 554 554 l 833 554 l 833 425 l 554 425 l 554 149 l 421 149 "},"À":{"ha":1029,"x_min":0,"x_max":0,"o":""},"ð":{"ha":888,"x_min":0,"x_max":0,"o":"m 410 917 l 514 943 b 414 1043 485 976 451 1010 l 539 1096 b 654 979 581 1061 619 1022 l 844 1028 l 844 931 l 711 897 b 825 406 781 778 825 621 b 442 -15 825 111 704 -15 b 63 371 168 -15 63 129 b 407 757 63 604 151 757 b 660 678 542 757 614 731 b 576 863 644 740 618 801 l 410 821 m 442 107 b 688 374 622 107 688 201 b 442 639 688 549 622 639 b 199 374 265 639 199 549 b 442 107 199 201 265 107 "},"³":{"ha":653,"x_min":0,"x_max":0,"o":"m 326 382 b 74 447 221 382 151 403 l 129 529 b 317 478 192 493 249 478 b 460 589 418 478 460 499 b 304 694 460 664 431 694 l 208 694 l 208 785 l 301 785 b 443 869 407 785 443 803 b 317 949 443 931 406 949 b 142 904 249 949 188 932 l 88 988 b 329 1046 150 1026 239 1046 b 550 892 488 1046 550 997 b 457 747 550 813 518 769 b 568 578 532 729 568 675 b 326 382 568 435 490 382 "},"ﬀ":{"ha":1040,"x_min":0,"x_max":0,"o":"m 643 650 l 321 650 l 321 0 l 186 0 l 186 650 l 40 650 l 40 772 l 186 772 l 186 840 b 432 1092 186 993 239 1092 l 521 1092 l 521 974 l 449 974 b 321 840 346 974 321 918 l 321 772 l 643 772 l 643 840 b 889 1092 643 993 694 1092 l 979 1092 l 979 974 l 906 974 b 778 840 803 974 778 918 l 778 772 l 979 772 l 979 650 l 778 650 l 778 0 l 643 0 "},"È":{"ha":906,"x_min":0,"x_max":0,"o":""},"†":{"ha":772,"x_min":0,"x_max":0,"o":"m 319 629 l 76 629 l 76 757 l 319 757 l 319 1078 l 453 1078 l 453 757 l 696 757 l 696 629 l 453 629 l 453 -231 l 319 -231 "},"":{"ha":1156,"x_min":0,"x_max":0,"o":"m 175 167 b 50 515 97 260 50 382 b 175 863 50 647 97 769 b 185 854 175 863 179 860 b 64 515 110 763 64 644 b 186 176 64 386 110 268 b 175 167 179 171 175 167 m 317 293 b 238 515 268 353 238 431 b 315 738 238 600 267 676 b 326 728 319 735 322 731 b 251 515 281 671 251 596 b 326 303 251 435 279 360 b 317 293 324 299 319 296 m 367 338 b 304 515 328 386 304 447 b 367 693 304 582 328 644 b 378 683 371 690 374 686 b 318 515 340 638 318 579 b 378 347 318 451 340 393 b 367 338 374 344 371 340 m 439 401 b 400 515 414 433 400 472 b 439 628 400 558 414 597 b 449 618 442 625 446 622 b 414 515 428 590 414 554 b 450 411 414 476 428 440 b 439 401 446 408 443 404 m 485 444 b 463 515 471 464 463 489 b 485 586 463 542 471 567 b 496 576 489 583 492 579 b 476 515 483 558 476 538 b 496 454 476 493 483 472 b 485 444 492 451 489 449 m 525 481 b 515 515 519 490 515 503 b 525 550 515 528 519 540 b 533 543 531 546 533 543 b 526 515 529 535 526 525 b 533 488 526 506 529 496 b 525 481 533 488 531 485 m 578 83 b 299 190 469 83 372 124 b 308 200 299 190 308 201 b 578 97 381 136 475 97 b 846 200 681 97 775 136 b 856 189 849 196 853 193 b 578 83 782 124 685 83 m 578 450 b 540 463 564 450 551 454 b 549 471 543 464 549 471 b 578 461 557 465 567 461 b 607 471 589 461 599 464 b 614 463 607 471 610 468 b 578 450 604 454 592 450 m 669 443 b 660 453 667 447 664 450 b 679 515 672 471 679 493 b 660 576 679 539 672 560 b 669 586 660 576 671 586 b 693 515 685 567 693 542 b 669 443 693 489 685 464 m 406 374 b 357 515 375 413 357 463 b 407 657 357 569 375 618 l 417 647 b 371 515 389 611 371 565 b 417 383 371 465 389 419 b 406 374 414 381 410 376 m 578 -24 b 228 111 444 -24 321 28 l 238 122 b 578 -10 328 40 447 -10 b 917 121 708 -10 826 40 b 926 111 917 122 926 111 b 578 -24 833 26 711 -24 m 578 168 b 354 253 492 168 414 200 l 364 264 b 578 182 421 213 496 182 b 790 264 660 182 735 213 b 800 253 793 260 797 257 b 578 168 742 200 664 168 m 578 236 b 399 304 510 236 447 263 l 408 314 b 578 250 454 274 513 250 b 746 314 642 250 701 274 b 756 303 749 310 753 307 b 578 236 708 261 646 236 m 578 290 b 435 343 524 290 474 311 l 444 354 b 578 304 481 324 528 304 b 711 354 628 304 675 324 b 719 343 714 351 717 347 b 578 290 682 311 632 290 m 578 368 b 486 401 543 368 511 381 l 496 413 b 578 382 518 393 547 382 b 658 413 608 382 636 393 b 668 401 661 408 665 406 b 578 368 643 381 613 368 m 497 618 b 486 629 492 622 488 628 b 578 663 511 650 543 663 b 669 629 613 663 644 650 l 658 618 b 578 649 636 638 608 649 b 497 618 547 649 519 638 m 792 767 b 578 849 735 818 660 849 b 365 768 496 849 422 818 l 356 778 b 578 863 415 831 493 863 b 801 778 664 863 742 831 b 792 767 799 774 794 769 m 631 481 b 622 488 625 485 622 488 b 629 515 626 496 629 506 b 622 543 629 525 626 535 l 631 550 b 640 515 636 540 640 528 b 631 481 640 503 636 490 m 650 463 b 639 472 646 467 643 469 b 653 515 647 485 653 500 b 639 558 653 531 647 546 l 650 568 b 667 515 661 553 667 535 b 650 463 667 496 661 478 m 692 425 b 681 435 688 428 683 432 b 707 515 697 457 707 485 b 681 596 707 546 697 574 l 690 606 b 721 515 710 581 721 549 b 692 425 721 482 710 451 m 750 374 b 739 383 746 376 743 381 b 785 515 767 419 785 465 b 738 647 785 565 767 611 l 749 657 b 799 515 781 618 799 569 b 750 374 799 461 781 413 m 789 338 b 778 347 786 340 782 344 b 838 515 815 393 838 451 b 778 683 838 579 815 638 l 789 693 b 851 515 828 644 851 583 b 789 338 851 447 828 386 m 839 293 b 828 303 839 293 835 296 b 904 515 876 361 904 435 b 828 728 904 596 876 671 l 839 738 b 918 515 889 678 918 600 b 839 293 918 431 889 353 m 901 238 b 892 246 899 240 894 243 b 988 515 951 319 988 413 b 890 783 988 618 951 711 l 901 793 b 1001 515 964 718 1001 621 b 901 238 1001 410 964 313 m 981 167 b 969 176 981 167 976 171 b 1092 515 1046 268 1092 386 b 969 854 1092 644 1046 763 l 981 864 b 1106 515 1058 771 1106 649 b 981 167 1106 383 1058 261 m 254 236 b 154 515 192 313 154 408 b 253 793 154 621 192 718 b 264 783 256 790 260 788 b 168 515 204 711 168 617 b 264 246 168 413 204 318 l 254 236 m 464 425 b 435 515 446 450 435 481 b 464 606 435 549 446 581 b 475 596 468 603 472 599 b 449 515 458 574 449 546 b 475 436 449 486 458 458 l 464 425 m 506 463 b 489 515 494 478 489 496 b 506 568 489 535 494 553 b 515 558 508 564 513 561 b 503 515 508 546 503 531 b 515 472 503 500 508 485 l 506 463 m 542 568 b 578 581 551 576 564 581 b 614 568 592 581 604 576 b 607 560 610 564 607 560 b 578 569 599 565 589 569 b 549 560 567 569 557 567 m 524 588 b 578 607 539 600 557 607 b 631 588 597 607 615 600 b 622 578 628 585 625 582 b 578 594 610 589 594 594 b 533 578 561 594 546 588 m 506 608 b 578 635 525 625 551 635 b 650 608 606 635 631 625 b 640 597 644 603 640 597 b 578 621 624 613 601 621 b 515 597 554 621 532 613 m 400 728 b 578 794 447 769 510 794 b 756 726 646 794 708 769 b 747 717 757 726 747 717 b 578 781 701 757 642 781 b 410 717 514 781 454 757 m 578 333 b 463 375 533 333 493 349 l 472 386 b 578 347 501 363 539 347 b 682 386 618 347 654 363 l 692 376 b 578 333 661 350 622 333 m 578 396 b 504 422 550 396 525 406 l 514 433 b 578 410 532 419 554 410 b 640 433 601 410 622 418 l 650 422 b 578 396 631 406 606 396 m 578 424 b 522 443 557 424 539 431 l 532 453 b 578 436 546 443 561 436 b 622 453 594 436 610 443 l 632 443 b 578 424 617 431 597 424 m 464 654 b 578 697 494 681 535 697 b 692 656 621 697 661 682 l 682 644 b 578 683 654 668 618 683 b 474 644 539 683 503 669 m 435 688 b 578 740 474 721 524 740 b 719 686 632 740 682 719 l 711 676 b 578 726 675 708 629 726 b 444 676 528 726 481 707 m 847 829 b 578 933 776 894 682 933 b 308 831 475 933 381 894 l 299 840 b 578 947 374 907 471 947 b 857 840 685 947 782 907 l 847 829 m 229 919 b 578 1054 322 1004 444 1054 b 928 919 711 1054 835 1003 l 918 908 b 578 1040 828 990 708 1040 b 239 908 447 1040 329 990 m 707 413 b 742 515 728 440 742 476 b 706 619 742 554 728 590 l 717 629 b 756 515 742 597 756 558 b 717 403 756 472 742 433 "},"√":{"ha":929,"x_min":0,"x_max":0,"o":"m 78 582 l 218 582 l 382 164 l 719 1029 l 853 1029 l 449 -7 l 308 -7 "},"-":{"ha":618,"x_min":0,"x_max":0,"o":"m 67 499 l 549 499 l 549 372 l 67 372 "},"∫":{"ha":1156,"x_min":0,"x_max":0,"o":"m 175 167 b 50 515 97 260 50 382 b 175 863 50 647 97 769 b 185 854 175 863 179 860 b 64 515 110 763 64 644 b 186 176 64 386 110 268 b 175 167 179 171 175 167 m 317 293 b 238 515 268 353 238 431 b 315 738 238 600 267 676 b 326 728 319 735 322 731 b 251 515 281 671 251 596 b 326 303 251 435 279 360 b 317 293 324 299 319 296 m 367 338 b 304 515 328 386 304 447 b 367 693 304 582 328 644 b 378 683 371 690 374 686 b 318 515 340 638 318 579 b 378 347 318 451 340 393 b 367 338 374 344 371 340 m 439 401 b 400 515 414 433 400 472 b 439 628 400 558 414 597 b 449 618 442 625 446 622 b 414 515 428 590 414 554 b 450 411 414 476 428 440 b 439 401 446 408 443 404 m 485 444 b 463 515 471 464 463 489 b 485 586 463 542 471 567 b 496 576 489 583 492 579 b 476 515 483 558 476 538 b 496 454 476 493 483 472 b 485 444 492 451 489 449 m 525 481 b 515 515 519 490 515 503 b 525 550 515 528 519 540 b 533 543 531 546 533 543 b 526 515 529 535 526 525 b 533 488 526 506 529 496 b 525 481 533 488 531 485 m 578 83 b 299 190 469 83 372 124 b 308 200 299 190 308 201 b 578 97 381 136 475 97 b 846 200 681 97 775 136 b 856 189 849 196 853 193 b 578 83 782 124 685 83 m 578 450 b 540 463 564 450 551 454 b 549 471 543 464 549 471 b 578 461 557 465 567 461 b 607 471 589 461 599 464 b 614 463 607 471 610 468 b 578 450 604 454 592 450 m 669 443 b 660 453 667 447 664 450 b 679 515 672 471 679 493 b 660 576 679 539 672 560 b 669 586 660 576 671 586 b 693 515 685 567 693 542 b 669 443 693 489 685 464 m 406 374 b 357 515 375 413 357 463 b 407 657 357 569 375 618 l 417 647 b 371 515 389 611 371 565 b 417 383 371 465 389 419 b 406 374 414 381 410 376 m 578 -24 b 228 111 444 -24 321 28 l 238 122 b 578 -10 328 40 447 -10 b 917 121 708 -10 826 40 b 926 111 917 122 926 111 b 578 -24 833 26 711 -24 m 578 168 b 354 253 492 168 414 200 l 364 264 b 578 182 421 213 496 182 b 790 264 660 182 735 213 b 800 253 793 260 797 257 b 578 168 742 200 664 168 m 578 236 b 399 304 510 236 447 263 l 408 314 b 578 250 454 274 513 250 b 746 314 642 250 701 274 b 756 303 749 310 753 307 b 578 236 708 261 646 236 m 578 290 b 435 343 524 290 474 311 l 444 354 b 578 304 481 324 528 304 b 711 354 628 304 675 324 b 719 343 714 351 717 347 b 578 290 682 311 632 290 m 578 368 b 486 401 543 368 511 381 l 496 413 b 578 382 518 393 547 382 b 658 413 608 382 636 393 b 668 401 661 408 665 406 b 578 368 643 381 613 368 m 497 618 b 486 629 492 622 488 628 b 578 663 511 650 543 663 b 669 629 613 663 644 650 l 658 618 b 578 649 636 638 608 649 b 497 618 547 649 519 638 m 792 767 b 578 849 735 818 660 849 b 365 768 496 849 422 818 l 356 778 b 578 863 415 831 493 863 b 801 778 664 863 742 831 b 792 767 799 774 794 769 m 631 481 b 622 488 625 485 622 488 b 629 515 626 496 629 506 b 622 543 629 525 626 535 l 631 550 b 640 515 636 540 640 528 b 631 481 640 503 636 490 m 650 463 b 639 472 646 467 643 469 b 653 515 647 485 653 500 b 639 558 653 531 647 546 l 650 568 b 667 515 661 553 667 535 b 650 463 667 496 661 478 m 692 425 b 681 435 688 428 683 432 b 707 515 697 457 707 485 b 681 596 707 546 697 574 l 690 606 b 721 515 710 581 721 549 b 692 425 721 482 710 451 m 750 374 b 739 383 746 376 743 381 b 785 515 767 419 785 465 b 738 647 785 565 767 611 l 749 657 b 799 515 781 618 799 569 b 750 374 799 461 781 413 m 789 338 b 778 347 786 340 782 344 b 838 515 815 393 838 451 b 778 683 838 579 815 638 l 789 693 b 851 515 828 644 851 583 b 789 338 851 447 828 386 m 839 293 b 828 303 839 293 835 296 b 904 515 876 361 904 435 b 828 728 904 596 876 671 l 839 738 b 918 515 889 678 918 600 b 839 293 918 431 889 353 m 901 238 b 892 246 899 240 894 243 b 988 515 951 319 988 413 b 890 783 988 618 951 711 l 901 793 b 1001 515 964 718 1001 621 b 901 238 1001 410 964 313 m 981 167 b 969 176 981 167 976 171 b 1092 515 1046 268 1092 386 b 969 854 1092 644 1046 763 l 981 864 b 1106 515 1058 771 1106 649 b 981 167 1106 383 1058 261 m 254 236 b 154 515 192 313 154 408 b 253 793 154 621 192 718 b 264 783 256 790 260 788 b 168 515 204 711 168 617 b 264 246 168 413 204 318 l 254 236 m 464 425 b 435 515 446 450 435 481 b 464 606 435 549 446 581 b 475 596 468 603 472 599 b 449 515 458 574 449 546 b 475 436 449 486 458 458 l 464 425 m 506 463 b 489 515 494 478 489 496 b 506 568 489 535 494 553 b 515 558 508 564 513 561 b 503 515 508 546 503 531 b 515 472 503 500 508 485 l 506 463 m 542 568 b 578 581 551 576 564 581 b 614 568 592 581 604 576 b 607 560 610 564 607 560 b 578 569 599 565 589 569 b 549 560 567 569 557 567 m 524 588 b 578 607 539 600 557 607 b 631 588 597 607 615 600 b 622 578 628 585 625 582 b 578 594 610 589 594 594 b 533 578 561 594 546 588 m 506 608 b 578 635 525 625 551 635 b 650 608 606 635 631 625 b 640 597 644 603 640 597 b 578 621 624 613 601 621 b 515 597 554 621 532 613 m 400 728 b 578 794 447 769 510 794 b 756 726 646 794 708 769 b 747 717 757 726 747 717 b 578 781 701 757 642 781 b 410 717 514 781 454 757 m 578 333 b 463 375 533 333 493 349 l 472 386 b 578 347 501 363 539 347 b 682 386 618 347 654 363 l 692 376 b 578 333 661 350 622 333 m 578 396 b 504 422 550 396 525 406 l 514 433 b 578 410 532 419 554 410 b 640 433 601 410 622 418 l 650 422 b 578 396 631 406 606 396 m 578 424 b 522 443 557 424 539 431 l 532 453 b 578 436 546 443 561 436 b 622 453 594 436 610 443 l 632 443 b 578 424 617 431 597 424 m 464 654 b 578 697 494 681 535 697 b 692 656 621 697 661 682 l 682 644 b 578 683 654 668 618 683 b 474 644 539 683 503 669 m 435 688 b 578 740 474 721 524 740 b 719 686 632 740 682 719 l 711 676 b 578 726 675 708 629 726 b 444 676 528 726 481 707 m 847 829 b 578 933 776 894 682 933 b 308 831 475 933 381 894 l 299 840 b 578 947 374 907 471 947 b 857 840 685 947 782 907 l 847 829 m 229 919 b 578 1054 322 1004 444 1054 b 928 919 711 1054 835 1003 l 918 908 b 578 1040 828 990 708 1040 b 239 908 447 1040 329 990 m 707 413 b 742 515 728 440 742 476 b 706 619 742 554 728 590 l 717 629 b 756 515 742 597 756 558 b 717 403 756 472 742 433 "},".":{"ha":351,"x_min":0,"x_max":0,"o":"m 90 183 l 260 183 l 260 0 l 90 0 "},"ì":{"ha":350,"x_min":0,"x_max":0,"o":"m -74 1079 l 90 1079 l 242 851 l 117 851 m 108 772 l 242 772 l 242 0 l 108 0 "},"~":{"ha":819,"x_min":0,"x_max":0,"o":"m 125 633 b 311 749 179 700 246 749 b 504 679 407 749 436 679 b 615 756 539 679 576 711 l 694 692 b 507 567 640 624 574 567 b 314 636 421 567 381 636 b 208 568 282 636 243 613 "},":":{"ha":379,"x_min":0,"x_max":0,"o":"m 104 178 l 274 178 l 274 0 l 104 0 m 104 772 l 274 772 l 274 594 l 104 594 "},"ﬁ":{"ha":886,"x_min":0,"x_max":0,"o":"m 40 772 l 186 772 l 186 840 b 432 1092 186 993 239 1092 l 521 1092 l 521 974 l 449 974 b 321 840 346 974 321 918 l 321 772 l 521 772 l 521 650 l 321 650 l 321 0 l 186 0 l 186 650 l 40 650 m 643 772 l 778 772 l 778 0 l 643 0 m 642 1029 l 778 1029 l 778 865 l 642 865 "},"∑":{"ha":1156,"x_min":0,"x_max":0,"o":"m 175 167 b 50 515 97 260 50 382 b 175 863 50 647 97 769 b 185 854 175 863 179 860 b 64 515 110 763 64 644 b 186 176 64 386 110 268 b 175 167 179 171 175 167 m 317 293 b 238 515 268 353 238 431 b 315 738 238 600 267 676 b 326 728 319 735 322 731 b 251 515 281 671 251 596 b 326 303 251 435 279 360 b 317 293 324 299 319 296 m 367 338 b 304 515 328 386 304 447 b 367 693 304 582 328 644 b 378 683 371 690 374 686 b 318 515 340 638 318 579 b 378 347 318 451 340 393 b 367 338 374 344 371 340 m 439 401 b 400 515 414 433 400 472 b 439 628 400 558 414 597 b 449 618 442 625 446 622 b 414 515 428 590 414 554 b 450 411 414 476 428 440 b 439 401 446 408 443 404 m 485 444 b 463 515 471 464 463 489 b 485 586 463 542 471 567 b 496 576 489 583 492 579 b 476 515 483 558 476 538 b 496 454 476 493 483 472 b 485 444 492 451 489 449 m 525 481 b 515 515 519 490 515 503 b 525 550 515 528 519 540 b 533 543 531 546 533 543 b 526 515 529 535 526 525 b 533 488 526 506 529 496 b 525 481 533 488 531 485 m 578 83 b 299 190 469 83 372 124 b 308 200 299 190 308 201 b 578 97 381 136 475 97 b 846 200 681 97 775 136 b 856 189 849 196 853 193 b 578 83 782 124 685 83 m 578 450 b 540 463 564 450 551 454 b 549 471 543 464 549 471 b 578 461 557 465 567 461 b 607 471 589 461 599 464 b 614 463 607 471 610 468 b 578 450 604 454 592 450 m 669 443 b 660 453 667 447 664 450 b 679 515 672 471 679 493 b 660 576 679 539 672 560 b 669 586 660 576 671 586 b 693 515 685 567 693 542 b 669 443 693 489 685 464 m 406 374 b 357 515 375 413 357 463 b 407 657 357 569 375 618 l 417 647 b 371 515 389 611 371 565 b 417 383 371 465 389 419 b 406 374 414 381 410 376 m 578 -24 b 228 111 444 -24 321 28 l 238 122 b 578 -10 328 40 447 -10 b 917 121 708 -10 826 40 b 926 111 917 122 926 111 b 578 -24 833 26 711 -24 m 578 168 b 354 253 492 168 414 200 l 364 264 b 578 182 421 213 496 182 b 790 264 660 182 735 213 b 800 253 793 260 797 257 b 578 168 742 200 664 168 m 578 236 b 399 304 510 236 447 263 l 408 314 b 578 250 454 274 513 250 b 746 314 642 250 701 274 b 756 303 749 310 753 307 b 578 236 708 261 646 236 m 578 290 b 435 343 524 290 474 311 l 444 354 b 578 304 481 324 528 304 b 711 354 628 304 675 324 b 719 343 714 351 717 347 b 578 290 682 311 632 290 m 578 368 b 486 401 543 368 511 381 l 496 413 b 578 382 518 393 547 382 b 658 413 608 382 636 393 b 668 401 661 408 665 406 b 578 368 643 381 613 368 m 497 618 b 486 629 492 622 488 628 b 578 663 511 650 543 663 b 669 629 613 663 644 650 l 658 618 b 578 649 636 638 608 649 b 497 618 547 649 519 638 m 792 767 b 578 849 735 818 660 849 b 365 768 496 849 422 818 l 356 778 b 578 863 415 831 493 863 b 801 778 664 863 742 831 b 792 767 799 774 794 769 m 631 481 b 622 488 625 485 622 488 b 629 515 626 496 629 506 b 622 543 629 525 626 535 l 631 550 b 640 515 636 540 640 528 b 631 481 640 503 636 490 m 650 463 b 639 472 646 467 643 469 b 653 515 647 485 653 500 b 639 558 653 531 647 546 l 650 568 b 667 515 661 553 667 535 b 650 463 667 496 661 478 m 692 425 b 681 435 688 428 683 432 b 707 515 697 457 707 485 b 681 596 707 546 697 574 l 690 606 b 721 515 710 581 721 549 b 692 425 721 482 710 451 m 750 374 b 739 383 746 376 743 381 b 785 515 767 419 785 465 b 738 647 785 565 767 611 l 749 657 b 799 515 781 618 799 569 b 750 374 799 461 781 413 m 789 338 b 778 347 786 340 782 344 b 838 515 815 393 838 451 b 778 683 838 579 815 638 l 789 693 b 851 515 828 644 851 583 b 789 338 851 447 828 386 m 839 293 b 828 303 839 293 835 296 b 904 515 876 361 904 435 b 828 728 904 596 876 671 l 839 738 b 918 515 889 678 918 600 b 839 293 918 431 889 353 m 901 238 b 892 246 899 240 894 243 b 988 515 951 319 988 413 b 890 783 988 618 951 711 l 901 793 b 1001 515 964 718 1001 621 b 901 238 1001 410 964 313 m 981 167 b 969 176 981 167 976 171 b 1092 515 1046 268 1092 386 b 969 854 1092 644 1046 763 l 981 864 b 1106 515 1058 771 1106 649 b 981 167 1106 383 1058 261 m 254 236 b 154 515 192 313 154 408 b 253 793 154 621 192 718 b 264 783 256 790 260 788 b 168 515 204 711 168 617 b 264 246 168 413 204 318 l 254 236 m 464 425 b 435 515 446 450 435 481 b 464 606 435 549 446 581 b 475 596 468 603 472 599 b 449 515 458 574 449 546 b 475 436 449 486 458 458 l 464 425 m 506 463 b 489 515 494 478 489 496 b 506 568 489 535 494 553 b 515 558 508 564 513 561 b 503 515 508 546 503 531 b 515 472 503 500 508 485 l 506 463 m 542 568 b 578 581 551 576 564 581 b 614 568 592 581 604 576 b 607 560 610 564 607 560 b 578 569 599 565 589 569 b 549 560 567 569 557 567 m 524 588 b 578 607 539 600 557 607 b 631 588 597 607 615 600 b 622 578 628 585 625 582 b 578 594 610 589 594 594 b 533 578 561 594 546 588 m 506 608 b 578 635 525 625 551 635 b 650 608 606 635 631 625 b 640 597 644 603 640 597 b 578 621 624 613 601 621 b 515 597 554 621 532 613 m 400 728 b 578 794 447 769 510 794 b 756 726 646 794 708 769 b 747 717 757 726 747 717 b 578 781 701 757 642 781 b 410 717 514 781 454 757 m 578 333 b 463 375 533 333 493 349 l 472 386 b 578 347 501 363 539 347 b 682 386 618 347 654 363 l 692 376 b 578 333 661 350 622 333 m 578 396 b 504 422 550 396 525 406 l 514 433 b 578 410 532 419 554 410 b 640 433 601 410 622 418 l 650 422 b 578 396 631 406 606 396 m 578 424 b 522 443 557 424 539 431 l 532 453 b 578 436 546 443 561 436 b 622 453 594 436 610 443 l 632 443 b 578 424 617 431 597 424 m 464 654 b 578 697 494 681 535 697 b 692 656 621 697 661 682 l 682 644 b 578 683 654 668 618 683 b 474 644 539 683 503 669 m 435 688 b 578 740 474 721 524 740 b 719 686 632 740 682 719 l 711 676 b 578 726 675 708 629 726 b 444 676 528 726 481 707 m 847 829 b 578 933 776 894 682 933 b 308 831 475 933 381 894 l 299 840 b 578 947 374 907 471 947 b 857 840 685 947 782 907 l 847 829 m 229 919 b 578 1054 322 1004 444 1054 b 928 919 711 1054 835 1003 l 918 908 b 578 1040 828 990 708 1040 b 239 908 447 1040 329 990 m 707 413 b 742 515 728 440 742 476 b 706 619 742 554 728 590 l 717 629 b 756 515 742 597 756 558 b 717 403 756 472 742 433 "},"˝":{"ha":819,"x_min":0,"x_max":0,"o":"m 283 1079 l 440 1079 l 226 851 l 108 851 m 615 1079 l 772 1079 l 557 851 l 440 851 "},"(":{"ha":679,"x_min":0,"x_max":0,"o":"m 449 -258 b 153 418 315 -147 153 85 b 449 1100 153 732 315 989 l 546 1029 b 292 418 429 917 292 722 b 546 -189 292 113 436 -89 l 449 -258 "},"Ê":{"ha":906,"x_min":0,"x_max":0,"o":"m 382 1315 l 528 1315 l 740 1088 l 610 1088 l 453 1228 l 299 1088 l 169 1088 m 117 1029 l 821 1029 l 821 894 l 257 894 l 257 599 l 807 599 l 807 465 l 257 465 l 257 129 l 826 129 l 826 0 l 117 0 "},";":{"ha":379,"x_min":0,"x_max":0,"o":"m 101 -110 b 188 0 171 -72 188 -54 l 104 0 l 104 178 l 274 178 l 274 47 b 138 -181 274 -76 251 -126 m 104 772 l 274 772 l 274 594 l 104 594 "},"ﬂ":{"ha":958,"x_min":0,"x_max":0,"o":"m 40 772 l 186 772 l 186 840 b 432 1092 186 993 239 1092 l 521 1092 l 521 974 l 449 974 b 321 840 346 974 321 918 l 321 772 l 521 772 l 521 650 l 321 650 l 321 0 l 186 0 l 186 650 l 40 650 m 817 -1 b 643 200 688 -1 643 53 l 643 1078 l 778 1078 l 778 215 b 863 119 778 143 788 119 l 894 119 l 894 1 b 817 -1 882 0 851 -1 "},"?":{"ha":936,"x_min":0,"x_max":0,"o":"m 374 281 b 535 606 358 472 392 532 b 690 781 651 668 690 696 b 471 918 690 865 661 918 b 174 847 360 918 258 890 l 114 965 b 481 1046 206 1015 350 1046 b 828 793 742 1046 828 965 b 636 528 828 656 758 593 b 506 281 510 463 494 432 l 374 281 m 354 164 l 524 164 l 524 0 l 354 0 "},"Á":{"ha":1029,"x_min":0,"x_max":0,"o":""},"¢":{"ha":786,"x_min":0,"x_max":0,"o":"m 374 -7 b 65 388 132 15 65 168 b 374 783 65 604 131 760 l 374 872 l 501 872 l 501 785 b 728 675 607 774 676 731 l 632 585 b 493 658 601 614 561 647 l 493 107 b 639 183 551 115 592 140 l 728 100 b 501 -6 661 40 599 4 l 501 -131 l 374 -131 m 196 385 b 382 108 196 232 240 131 l 382 658 b 196 385 242 636 196 538 "},"⁄":{"ha":700,"x_min":0,"x_max":0,"o":"m 576 1029 l 700 1029 l 122 0 l 0 0 "},"ﬆ":{"ha":886,"x_min":0,"x_max":0,"o":"m 40 772 l 186 772 l 186 840 b 432 1092 186 993 239 1092 l 521 1092 l 521 974 l 449 974 b 321 840 346 974 321 918 l 321 772 l 521 772 l 521 650 l 321 650 l 321 0 l 186 0 l 186 650 l 40 650 m 538 -122 l 550 -122 b 643 -8 632 -121 643 -97 l 643 772 l 778 772 l 778 -7 b 563 -233 778 -181 738 -233 l 538 -233 m 642 1029 l 778 1029 l 778 865 l 642 865 "},"ł":{"ha":510,"x_min":0,"x_max":0,"o":"m 32 632 l 165 708 l 165 1078 l 301 1078 l 301 788 l 449 874 l 449 757 l 301 672 l 301 211 b 385 114 301 138 311 114 l 417 114 l 417 1 b 340 -1 404 0 375 -1 b 165 197 211 -1 165 53 l 165 593 l 32 517 "},"õ":{"ha":888,"x_min":0,"x_max":0,"o":""},"π":{"ha":1147,"x_min":0,"x_max":0,"o":"m 571 -17 b 57 515 226 -17 57 207 b 571 1047 57 824 226 1047 b 1088 515 917 1047 1088 824 b 571 -17 1088 207 917 -17 m 571 43 b 1028 515 888 43 1028 240 b 571 988 1028 790 888 988 b 118 515 254 988 118 790 b 571 43 118 240 254 43 m 335 851 l 643 851 b 886 639 828 851 886 781 b 642 417 886 497 829 417 l 428 417 l 428 160 l 335 160 m 646 501 b 792 635 747 501 792 536 b 642 765 792 732 747 765 l 428 765 l 428 501 "},"š":{"ha":744,"x_min":0,"x_max":0,"o":"m 86 1079 l 218 1079 l 374 939 l 529 1079 l 657 1079 l 444 851 l 299 851 m 368 -14 b 35 76 258 -14 139 7 l 104 182 b 376 104 193 125 293 104 b 563 218 508 104 563 125 b 376 331 563 292 514 307 b 74 569 194 363 74 393 b 376 790 74 710 156 790 b 671 722 496 790 597 765 l 607 611 b 379 665 549 643 469 665 b 208 569 244 665 208 629 b 382 457 208 497 256 479 b 693 224 572 422 693 397 b 368 -14 693 47 596 -14 "},"s":{"ha":744,"x_min":0,"x_max":0,"o":"m 368 -14 b 35 76 258 -14 139 7 l 104 182 b 376 104 193 125 293 104 b 563 218 508 104 563 125 b 376 331 563 292 514 307 b 74 569 194 363 74 393 b 376 790 74 710 156 790 b 671 722 496 790 597 765 l 607 611 b 379 665 549 643 469 665 b 208 569 244 665 208 629 b 382 457 208 497 256 479 b 693 224 572 422 693 397 b 368 -14 693 47 596 -14 "},"B":{"ha":996,"x_min":0,"x_max":0,"o":"m 117 1029 l 571 1029 b 915 776 811 1029 915 949 b 775 540 915 657 881 574 b 942 285 896 510 942 429 b 563 0 942 72 813 0 l 117 0 m 578 126 b 800 297 731 126 800 171 b 575 465 800 417 732 465 l 254 465 l 254 126 m 575 593 b 774 758 732 593 774 660 b 575 901 774 857 718 901 l 254 901 l 254 593 "},"í":{"ha":350,"x_min":0,"x_max":0,"o":"m 260 1079 l 425 1079 l 235 851 l 111 851 m 108 772 l 242 772 l 242 0 l 108 0 "},"F":{"ha":853,"x_min":0,"x_max":0,"o":"m 117 1029 l 801 1029 l 801 894 l 257 894 l 257 585 l 789 585 l 789 451 l 257 451 l 257 0 l 117 0 "},"„":{"ha":622,"x_min":0,"x_max":0,"o":"m 88 -97 b 172 19 156 -62 172 -42 l 90 19 l 90 200 l 257 200 l 257 65 b 122 -167 257 -57 235 -114 m 360 -97 b 447 19 429 -62 447 -42 l 367 19 l 367 200 l 531 200 l 531 65 b 397 -167 531 -57 508 -114 "},"J":{"ha":575,"x_min":0,"x_max":0,"o":"m 156 -1 b 39 0 96 -1 79 -1 l 39 129 l 140 129 b 326 306 278 129 326 182 l 326 1029 l 465 1029 l 465 300 b 156 -1 465 75 354 -1 "},"Ÿ":{"ha":994,"x_min":0,"x_max":0,"o":""},"R":{"ha":1017,"x_min":0,"x_max":0,"o":"m 542 396 l 254 396 l 254 0 l 117 0 l 117 1029 l 575 1029 b 936 719 836 1029 936 922 b 688 406 936 553 865 439 l 921 0 l 771 0 m 574 525 b 794 715 714 525 794 565 b 569 899 794 864 717 899 l 254 899 l 254 525 "},"[":{"ha":661,"x_min":0,"x_max":0,"o":"m 165 1078 l 526 1078 l 526 954 l 303 954 l 303 -110 l 531 -110 l 531 -229 l 165 -229 "},"V":{"ha":1026,"x_min":0,"x_max":0,"o":"m 32 1029 l 179 1029 l 515 169 l 849 1029 l 996 1029 l 585 -7 l 442 -7 "},"^":{"ha":819,"x_min":0,"x_max":0,"o":"m 336 1043 l 482 1043 l 694 815 l 564 815 l 407 956 l 253 815 l 124 815 "},"Ó":{"ha":1165,"x_min":0,"x_max":0,"o":"m 669 1315 l 835 1315 l 589 1088 l 464 1088 m 582 -17 b 57 515 253 -17 57 142 b 582 1046 57 888 253 1046 b 1107 515 911 1046 1107 888 b 582 -17 1107 142 911 -17 m 582 114 b 967 513 850 114 967 257 b 582 911 967 768 850 911 b 199 513 314 911 199 768 b 582 114 199 257 314 114 "},"b":{"ha":911,"x_min":0,"x_max":0,"o":"m 511 -14 b 219 82 346 -14 267 15 l 194 -6 l 100 4 l 100 1078 l 235 1078 l 235 696 b 518 790 278 761 364 790 b 849 388 778 790 849 624 b 511 -14 849 151 774 -14 m 489 107 b 711 382 664 107 711 214 b 489 661 711 553 667 661 b 236 382 307 661 236 588 b 489 107 236 178 303 107 "},"«":{"ha":974,"x_min":0,"x_max":0,"o":"m 135 385 l 344 772 l 464 772 l 263 385 l 464 0 l 344 0 m 474 385 l 683 772 l 804 772 l 604 385 l 804 0 l 683 0 "},"¹":{"ha":475,"x_min":0,"x_max":0,"o":"m 210 931 l 89 931 l 89 1029 l 322 1029 l 322 385 l 210 385 "},"f":{"ha":544,"x_min":0,"x_max":0,"o":"m 40 772 l 186 772 l 186 840 b 432 1092 186 993 239 1092 l 521 1092 l 521 974 l 449 974 b 321 840 346 974 321 918 l 321 772 l 521 772 l 521 650 l 321 650 l 321 0 l 186 0 l 186 650 l 40 650 "},"Ò":{"ha":1165,"x_min":0,"x_max":0,"o":""},"j":{"ha":350,"x_min":0,"x_max":0,"o":"m 3 -122 l 14 -122 b 108 -8 96 -121 108 -97 l 108 772 l 242 772 l 242 -7 b 28 -233 242 -181 201 -233 l 3 -233 m 107 1029 l 243 1029 l 243 865 l 107 865 "},"µ":{"ha":874,"x_min":0,"x_max":0,"o":"m 100 772 l 236 772 l 236 328 b 442 110 236 206 236 110 b 644 332 647 110 644 206 l 644 772 l 778 772 l 778 335 b 450 -14 778 107 739 -14 b 236 51 328 -14 265 10 l 236 -229 l 100 -229 "},"ü":{"ha":868,"x_min":0,"x_max":0,"o":"m 221 1011 l 344 1011 l 344 856 l 221 856 m 521 1011 l 643 1011 l 643 856 l 521 856 m 436 -14 b 96 331 139 -14 96 107 l 96 772 l 231 772 l 231 328 b 436 110 231 206 232 110 b 640 332 642 110 640 206 l 640 772 l 772 772 l 772 335 b 436 -14 772 107 733 -14 "},"¶":{"ha":882,"x_min":0,"x_max":0,"o":"m 346 388 b 71 711 135 413 71 524 b 436 1029 71 922 157 1029 l 757 1029 l 757 0 l 629 0 l 629 383 l 474 383 l 474 0 l 346 0 m 629 497 l 629 904 l 433 904 b 207 704 268 904 207 857 b 431 497 207 553 271 497 "},"v":{"ha":781,"x_min":0,"x_max":0,"o":"m 10 772 l 154 772 l 392 154 l 629 772 l 769 772 l 463 -7 l 317 -7 "},"Ç":{"ha":1015,"x_min":0,"x_max":0,"o":"m 514 -322 b 346 -281 443 -322 390 -306 l 383 -210 b 508 -242 421 -229 464 -242 b 613 -174 594 -242 613 -212 b 485 -115 613 -124 578 -110 l 451 -92 l 467 -10 b 57 515 183 24 57 204 b 578 1046 57 878 247 1046 b 950 911 735 1046 857 1000 l 849 810 b 576 911 778 875 689 911 b 199 514 324 911 199 778 b 578 117 199 254 314 117 b 857 222 726 117 796 164 l 957 126 b 571 -15 883 53 779 -15 l 549 -15 l 540 -61 b 706 -182 625 -57 706 -68 b 514 -322 706 -272 650 -322 "},"ï":{"ha":350,"x_min":0,"x_max":0,"o":"m -12 1024 l 99 1024 l 99 867 l -12 867 m 253 1024 l 364 1024 l 364 867 l 253 867 m 108 772 l 242 772 l 242 0 l 108 0 "},"−":{"ha":976,"x_min":0,"x_max":0,"o":"m 143 554 l 833 554 l 833 425 l 143 425 "},"}":{"ha":713,"x_min":0,"x_max":0,"o":"m 131 -110 l 229 -110 b 364 -11 336 -110 364 -82 b 292 317 364 50 292 233 b 374 425 292 368 317 407 b 292 532 315 443 292 481 b 364 857 292 615 364 796 b 229 954 364 926 336 954 l 131 954 l 131 1078 l 257 1078 b 501 893 436 1078 501 1017 b 426 556 501 806 426 625 b 604 483 426 494 474 483 l 604 367 b 426 294 481 367 426 360 b 501 -44 426 224 501 43 b 257 -229 501 -168 436 -229 l 131 -229 "},"#":{"ha":1024,"x_min":0,"x_max":0,"o":"m 239 290 l 88 290 l 88 414 l 263 414 l 300 603 l 88 603 l 88 728 l 321 728 l 381 1029 l 510 1029 l 451 728 l 653 728 l 710 1029 l 840 1029 l 782 728 l 938 728 l 938 603 l 760 603 l 722 414 l 938 414 l 938 290 l 700 290 l 643 0 l 514 0 l 569 290 l 369 290 l 313 0 l 183 0 m 600 407 l 639 611 l 421 611 l 382 407 "},"¦":{"ha":469,"x_min":0,"x_max":0,"o":"m 165 315 l 303 315 l 303 -229 l 165 -229 m 165 1078 l 303 1078 l 303 533 l 165 533 "},"m":{"ha":1392,"x_min":0,"x_max":0,"o":"m 100 765 l 207 772 l 218 699 b 494 790 249 749 326 790 b 731 693 658 790 710 750 b 1026 790 767 749 853 790 b 1297 471 1271 790 1297 661 l 1297 0 l 1161 0 l 1161 444 b 983 657 1161 569 1157 657 b 765 428 793 657 765 561 l 765 0 l 632 0 l 632 444 b 453 657 632 569 626 657 b 236 428 263 657 236 561 l 236 0 l 100 0 "},"\\":{"ha":715,"x_min":0,"x_max":0,"o":"m 0 1029 l 139 1029 l 715 0 l 576 0 "},"€":{"ha":940,"x_min":0,"x_max":0,"o":"m 50 682 l 214 682 b 593 1046 244 918 357 1046 b 856 990 721 1046 786 1026 l 792 874 b 597 918 739 903 679 918 b 344 682 433 918 367 829 l 692 682 l 692 567 l 335 567 l 335 521 l 335 465 l 692 465 l 692 350 l 344 350 b 594 107 368 194 436 107 b 793 157 667 107 729 118 l 861 50 b 588 -17 785 3 707 -17 b 214 350 349 -17 243 118 l 50 350 l 50 465 l 204 465 l 204 518 l 204 567 l 50 567 "},"ù":{"ha":868,"x_min":0,"x_max":0,"o":""},"Û":{"ha":1094,"x_min":0,"x_max":0,"o":"m 471 1315 l 617 1315 l 829 1088 l 699 1088 l 542 1228 l 388 1088 l 258 1088 m 546 -18 b 110 378 163 -18 110 176 l 110 1029 l 250 1029 l 250 394 b 547 114 250 226 301 114 b 850 394 794 114 850 224 l 850 1029 l 986 1029 l 986 378 b 546 -18 986 175 929 -18 "},"@":{"ha":1499,"x_min":0,"x_max":0,"o":"m 763 -229 b 118 406 331 -229 118 -28 b 749 1047 118 844 346 1047 b 1383 406 1156 1047 1383 844 b 1142 44 1383 132 1332 44 b 958 156 986 44 964 104 b 689 50 914 85 839 50 b 390 413 465 50 390 199 b 694 772 390 624 469 772 b 943 675 840 772 907 743 l 972 765 l 1057 758 l 1057 239 b 1165 121 1057 178 1068 121 b 1301 406 1285 121 1301 194 b 749 967 1301 789 1115 967 b 200 406 392 967 200 789 b 761 -149 200 31 386 -149 b 1142 -69 910 -149 1046 -115 l 1176 -140 b 763 -229 1068 -194 928 -229 m 714 158 b 935 413 863 158 935 225 b 714 657 935 597 867 657 b 513 413 565 657 513 564 b 714 158 513 258 565 158 "},"Ł":{"ha":826,"x_min":0,"x_max":0,"o":"m 0 526 l 117 592 l 117 1029 l 257 1029 l 257 669 l 478 793 l 478 672 l 257 549 l 257 129 l 793 129 l 793 0 l 117 0 l 117 471 l 0 406 "},"\"":{"ha":701,"x_min":0,"x_max":0,"o":"m 132 1029 l 271 1029 l 263 608 l 142 608 m 431 1029 l 571 1029 l 561 608 l 440 608 "},">":{"ha":976,"x_min":0,"x_max":0,"o":"m 203 246 l 690 479 l 203 715 l 203 843 l 829 529 l 829 429 l 203 115 "},"ƒ":{"ha":768,"x_min":0,"x_max":0,"o":"m 121 631 l 293 631 l 331 804 b 600 1029 357 932 392 1029 l 654 1029 l 654 901 l 607 901 b 457 764 492 901 474 842 l 428 631 l 654 631 l 654 508 l 403 508 l 246 -231 l 110 -231 l 267 508 l 121 508 "},"'":{"ha":404,"x_min":0,"x_max":0,"o":"m 132 1031 l 271 1031 l 263 608 l 142 608 "},"Í":{"ha":394,"x_min":0,"x_max":0,"o":"m 310 1318 l 479 1318 l 256 1089 l 128 1089 m 128 1029 l 267 1029 l 267 0 l 128 0 "},"Ú":{"ha":1094,"x_min":0,"x_max":0,"o":"m 633 1315 l 799 1315 l 553 1088 l 428 1088 m 546 -18 b 110 378 163 -18 110 176 l 110 1029 l 250 1029 l 250 394 b 547 114 250 226 301 114 b 850 394 794 114 850 224 l 850 1029 l 986 1029 l 986 378 b 546 -18 986 175 929 -18 "},"%":{"ha":1592,"x_min":0,"x_max":0,"o":"m 349 386 b 57 715 144 386 57 517 b 349 1046 57 913 144 1046 b 636 715 549 1046 636 913 b 349 386 636 517 549 386 m 349 494 b 515 715 475 494 515 588 b 349 933 515 842 474 933 b 179 715 221 933 179 843 b 349 494 179 588 219 494 m 1243 -14 b 954 317 1042 -14 954 117 b 1243 647 954 513 1042 647 b 1533 317 1444 647 1533 513 b 1243 -14 1533 117 1444 -14 m 1243 94 b 1410 317 1371 94 1410 189 b 1243 533 1410 442 1371 533 b 1076 317 1118 533 1076 443 b 1243 94 1076 189 1117 94 m 1018 1031 l 1146 1031 l 571 0 l 443 0 "},"¾":{"ha":1419,"x_min":0,"x_max":0,"o":"m 304 382 b 51 447 200 382 131 403 l 110 531 b 294 478 172 494 225 478 b 438 589 396 478 438 499 b 282 694 438 664 408 694 l 186 694 l 186 786 l 279 786 b 419 869 385 786 419 803 b 292 949 419 931 382 949 b 119 904 226 949 165 932 l 65 988 b 307 1046 128 1026 217 1046 b 526 892 464 1046 526 997 b 436 747 526 813 496 769 b 546 578 508 729 546 675 b 304 382 546 435 467 382 m 1158 140 l 842 140 l 842 224 l 1126 644 l 1246 644 l 964 231 l 1160 231 l 1179 393 l 1263 393 l 1263 231 l 1365 231 l 1365 140 l 1263 140 l 1263 0 l 1158 0 m 979 1029 l 1100 1029 l 525 0 l 406 0 "},"ý":{"ha":757,"x_min":0,"x_max":0,"o":"m 178 -233 b 107 -232 164 -233 124 -233 l 107 -122 l 167 -122 b 286 -51 242 -122 268 -107 l 310 8 l 10 772 l 154 772 l 381 169 l 606 772 l 747 772 l 419 -65 b 178 -233 375 -185 315 -233 m 464 1079 l 629 1079 l 383 851 l 258 851 "},"ú":{"ha":868,"x_min":0,"x_max":0,"o":"m 521 1079 l 686 1079 l 440 851 l 315 851 m 436 -14 b 96 331 139 -14 96 107 l 96 772 l 231 772 l 231 328 b 436 110 231 206 232 110 b 640 332 642 110 640 206 l 640 772 l 772 772 l 772 335 b 436 -14 772 107 733 -14 "},"’":{"ha":351,"x_min":0,"x_max":0,"o":"m 88 725 b 174 842 157 761 174 783 l 90 842 l 90 1029 l 260 1029 l 260 892 b 124 653 260 757 238 708 "},"Ω":{"ha":1156,"x_min":0,"x_max":0,"o":"m 175 167 b 50 515 97 260 50 382 b 175 863 50 647 97 769 b 185 854 175 863 179 860 b 64 515 110 763 64 644 b 186 176 64 386 110 268 b 175 167 179 171 175 167 m 317 293 b 238 515 268 353 238 431 b 315 738 238 600 267 676 b 326 728 319 735 322 731 b 251 515 281 671 251 596 b 326 303 251 435 279 360 b 317 293 324 299 319 296 m 367 338 b 304 515 328 386 304 447 b 367 693 304 582 328 644 b 378 683 371 690 374 686 b 318 515 340 638 318 579 b 378 347 318 451 340 393 b 367 338 374 344 371 340 m 439 401 b 400 515 414 433 400 472 b 439 628 400 558 414 597 b 449 618 442 625 446 622 b 414 515 428 590 414 554 b 450 411 414 476 428 440 b 439 401 446 408 443 404 m 485 444 b 463 515 471 464 463 489 b 485 586 463 542 471 567 b 496 576 489 583 492 579 b 476 515 483 558 476 538 b 496 454 476 493 483 472 b 485 444 492 451 489 449 m 525 481 b 515 515 519 490 515 503 b 525 550 515 528 519 540 b 533 543 531 546 533 543 b 526 515 529 535 526 525 b 533 488 526 506 529 496 b 525 481 533 488 531 485 m 578 83 b 299 190 469 83 372 124 b 308 200 299 190 308 201 b 578 97 381 136 475 97 b 846 200 681 97 775 136 b 856 189 849 196 853 193 b 578 83 782 124 685 83 m 578 450 b 540 463 564 450 551 454 b 549 471 543 464 549 471 b 578 461 557 465 567 461 b 607 471 589 461 599 464 b 614 463 607 471 610 468 b 578 450 604 454 592 450 m 669 443 b 660 453 667 447 664 450 b 679 515 672 471 679 493 b 660 576 679 539 672 560 b 669 586 660 576 671 586 b 693 515 685 567 693 542 b 669 443 693 489 685 464 m 406 374 b 357 515 375 413 357 463 b 407 657 357 569 375 618 l 417 647 b 371 515 389 611 371 565 b 417 383 371 465 389 419 b 406 374 414 381 410 376 m 578 -24 b 228 111 444 -24 321 28 l 238 122 b 578 -10 328 40 447 -10 b 917 121 708 -10 826 40 b 926 111 917 122 926 111 b 578 -24 833 26 711 -24 m 578 168 b 354 253 492 168 414 200 l 364 264 b 578 182 421 213 496 182 b 790 264 660 182 735 213 b 800 253 793 260 797 257 b 578 168 742 200 664 168 m 578 236 b 399 304 510 236 447 263 l 408 314 b 578 250 454 274 513 250 b 746 314 642 250 701 274 b 756 303 749 310 753 307 b 578 236 708 261 646 236 m 578 290 b 435 343 524 290 474 311 l 444 354 b 578 304 481 324 528 304 b 711 354 628 304 675 324 b 719 343 714 351 717 347 b 578 290 682 311 632 290 m 578 368 b 486 401 543 368 511 381 l 496 413 b 578 382 518 393 547 382 b 658 413 608 382 636 393 b 668 401 661 408 665 406 b 578 368 643 381 613 368 m 497 618 b 486 629 492 622 488 628 b 578 663 511 650 543 663 b 669 629 613 663 644 650 l 658 618 b 578 649 636 638 608 649 b 497 618 547 649 519 638 m 792 767 b 578 849 735 818 660 849 b 365 768 496 849 422 818 l 356 778 b 578 863 415 831 493 863 b 801 778 664 863 742 831 b 792 767 799 774 794 769 m 631 481 b 622 488 625 485 622 488 b 629 515 626 496 629 506 b 622 543 629 525 626 535 l 631 550 b 640 515 636 540 640 528 b 631 481 640 503 636 490 m 650 463 b 639 472 646 467 643 469 b 653 515 647 485 653 500 b 639 558 653 531 647 546 l 650 568 b 667 515 661 553 667 535 b 650 463 667 496 661 478 m 692 425 b 681 435 688 428 683 432 b 707 515 697 457 707 485 b 681 596 707 546 697 574 l 690 606 b 721 515 710 581 721 549 b 692 425 721 482 710 451 m 750 374 b 739 383 746 376 743 381 b 785 515 767 419 785 465 b 738 647 785 565 767 611 l 749 657 b 799 515 781 618 799 569 b 750 374 799 461 781 413 m 789 338 b 778 347 786 340 782 344 b 838 515 815 393 838 451 b 778 683 838 579 815 638 l 789 693 b 851 515 828 644 851 583 b 789 338 851 447 828 386 m 839 293 b 828 303 839 293 835 296 b 904 515 876 361 904 435 b 828 728 904 596 876 671 l 839 738 b 918 515 889 678 918 600 b 839 293 918 431 889 353 m 901 238 b 892 246 899 240 894 243 b 988 515 951 319 988 413 b 890 783 988 618 951 711 l 901 793 b 1001 515 964 718 1001 621 b 901 238 1001 410 964 313 m 981 167 b 969 176 981 167 976 171 b 1092 515 1046 268 1092 386 b 969 854 1092 644 1046 763 l 981 864 b 1106 515 1058 771 1106 649 b 981 167 1106 383 1058 261 m 254 236 b 154 515 192 313 154 408 b 253 793 154 621 192 718 b 264 783 256 790 260 788 b 168 515 204 711 168 617 b 264 246 168 413 204 318 l 254 236 m 464 425 b 435 515 446 450 435 481 b 464 606 435 549 446 581 b 475 596 468 603 472 599 b 449 515 458 574 449 546 b 475 436 449 486 458 458 l 464 425 m 506 463 b 489 515 494 478 489 496 b 506 568 489 535 494 553 b 515 558 508 564 513 561 b 503 515 508 546 503 531 b 515 472 503 500 508 485 l 506 463 m 542 568 b 578 581 551 576 564 581 b 614 568 592 581 604 576 b 607 560 610 564 607 560 b 578 569 599 565 589 569 b 549 560 567 569 557 567 m 524 588 b 578 607 539 600 557 607 b 631 588 597 607 615 600 b 622 578 628 585 625 582 b 578 594 610 589 594 594 b 533 578 561 594 546 588 m 506 608 b 578 635 525 625 551 635 b 650 608 606 635 631 625 b 640 597 644 603 640 597 b 578 621 624 613 601 621 b 515 597 554 621 532 613 m 400 728 b 578 794 447 769 510 794 b 756 726 646 794 708 769 b 747 717 757 726 747 717 b 578 781 701 757 642 781 b 410 717 514 781 454 757 m 578 333 b 463 375 533 333 493 349 l 472 386 b 578 347 501 363 539 347 b 682 386 618 347 654 363 l 692 376 b 578 333 661 350 622 333 m 578 396 b 504 422 550 396 525 406 l 514 433 b 578 410 532 419 554 410 b 640 433 601 410 622 418 l 650 422 b 578 396 631 406 606 396 m 578 424 b 522 443 557 424 539 431 l 532 453 b 578 436 546 443 561 436 b 622 453 594 436 610 443 l 632 443 b 578 424 617 431 597 424 m 464 654 b 578 697 494 681 535 697 b 692 656 621 697 661 682 l 682 644 b 578 683 654 668 618 683 b 474 644 539 683 503 669 m 435 688 b 578 740 474 721 524 740 b 719 686 632 740 682 719 l 711 676 b 578 726 675 708 629 726 b 444 676 528 726 481 707 m 847 829 b 578 933 776 894 682 933 b 308 831 475 933 381 894 l 299 840 b 578 947 374 907 471 947 b 857 840 685 947 782 907 l 847 829 m 229 919 b 578 1054 322 1004 444 1054 b 928 919 711 1054 835 1003 l 918 908 b 578 1040 828 990 708 1040 b 239 908 447 1040 329 990 m 707 413 b 742 515 728 440 742 476 b 706 619 742 554 728 590 l 717 629 b 756 515 742 597 756 558 b 717 403 756 472 742 433 "},"]":{"ha":661,"x_min":0,"x_max":0,"o":"m 133 -110 l 358 -110 l 358 954 l 132 954 l 132 1078 l 494 1078 l 494 -229 l 133 -229 "},"∏":{"ha":1156,"x_min":0,"x_max":0,"o":"m 175 167 b 50 515 97 260 50 382 b 175 863 50 647 97 769 b 185 854 175 863 179 860 b 64 515 110 763 64 644 b 186 176 64 386 110 268 b 175 167 179 171 175 167 m 317 293 b 238 515 268 353 238 431 b 315 738 238 600 267 676 b 326 728 319 735 322 731 b 251 515 281 671 251 596 b 326 303 251 435 279 360 b 317 293 324 299 319 296 m 367 338 b 304 515 328 386 304 447 b 367 693 304 582 328 644 b 378 683 371 690 374 686 b 318 515 340 638 318 579 b 378 347 318 451 340 393 b 367 338 374 344 371 340 m 439 401 b 400 515 414 433 400 472 b 439 628 400 558 414 597 b 449 618 442 625 446 622 b 414 515 428 590 414 554 b 450 411 414 476 428 440 b 439 401 446 408 443 404 m 485 444 b 463 515 471 464 463 489 b 485 586 463 542 471 567 b 496 576 489 583 492 579 b 476 515 483 558 476 538 b 496 454 476 493 483 472 b 485 444 492 451 489 449 m 525 481 b 515 515 519 490 515 503 b 525 550 515 528 519 540 b 533 543 531 546 533 543 b 526 515 529 535 526 525 b 533 488 526 506 529 496 b 525 481 533 488 531 485 m 578 83 b 299 190 469 83 372 124 b 308 200 299 190 308 201 b 578 97 381 136 475 97 b 846 200 681 97 775 136 b 856 189 849 196 853 193 b 578 83 782 124 685 83 m 578 450 b 540 463 564 450 551 454 b 549 471 543 464 549 471 b 578 461 557 465 567 461 b 607 471 589 461 599 464 b 614 463 607 471 610 468 b 578 450 604 454 592 450 m 669 443 b 660 453 667 447 664 450 b 679 515 672 471 679 493 b 660 576 679 539 672 560 b 669 586 660 576 671 586 b 693 515 685 567 693 542 b 669 443 693 489 685 464 m 406 374 b 357 515 375 413 357 463 b 407 657 357 569 375 618 l 417 647 b 371 515 389 611 371 565 b 417 383 371 465 389 419 b 406 374 414 381 410 376 m 578 -24 b 228 111 444 -24 321 28 l 238 122 b 578 -10 328 40 447 -10 b 917 121 708 -10 826 40 b 926 111 917 122 926 111 b 578 -24 833 26 711 -24 m 578 168 b 354 253 492 168 414 200 l 364 264 b 578 182 421 213 496 182 b 790 264 660 182 735 213 b 800 253 793 260 797 257 b 578 168 742 200 664 168 m 578 236 b 399 304 510 236 447 263 l 408 314 b 578 250 454 274 513 250 b 746 314 642 250 701 274 b 756 303 749 310 753 307 b 578 236 708 261 646 236 m 578 290 b 435 343 524 290 474 311 l 444 354 b 578 304 481 324 528 304 b 711 354 628 304 675 324 b 719 343 714 351 717 347 b 578 290 682 311 632 290 m 578 368 b 486 401 543 368 511 381 l 496 413 b 578 382 518 393 547 382 b 658 413 608 382 636 393 b 668 401 661 408 665 406 b 578 368 643 381 613 368 m 497 618 b 486 629 492 622 488 628 b 578 663 511 650 543 663 b 669 629 613 663 644 650 l 658 618 b 578 649 636 638 608 649 b 497 618 547 649 519 638 m 792 767 b 578 849 735 818 660 849 b 365 768 496 849 422 818 l 356 778 b 578 863 415 831 493 863 b 801 778 664 863 742 831 b 792 767 799 774 794 769 m 631 481 b 622 488 625 485 622 488 b 629 515 626 496 629 506 b 622 543 629 525 626 535 l 631 550 b 640 515 636 540 640 528 b 631 481 640 503 636 490 m 650 463 b 639 472 646 467 643 469 b 653 515 647 485 653 500 b 639 558 653 531 647 546 l 650 568 b 667 515 661 553 667 535 b 650 463 667 496 661 478 m 692 425 b 681 435 688 428 683 432 b 707 515 697 457 707 485 b 681 596 707 546 697 574 l 690 606 b 721 515 710 581 721 549 b 692 425 721 482 710 451 m 750 374 b 739 383 746 376 743 381 b 785 515 767 419 785 465 b 738 647 785 565 767 611 l 749 657 b 799 515 781 618 799 569 b 750 374 799 461 781 413 m 789 338 b 778 347 786 340 782 344 b 838 515 815 393 838 451 b 778 683 838 579 815 638 l 789 693 b 851 515 828 644 851 583 b 789 338 851 447 828 386 m 839 293 b 828 303 839 293 835 296 b 904 515 876 361 904 435 b 828 728 904 596 876 671 l 839 738 b 918 515 889 678 918 600 b 839 293 918 431 889 353 m 901 238 b 892 246 899 240 894 243 b 988 515 951 319 988 413 b 890 783 988 618 951 711 l 901 793 b 1001 515 964 718 1001 621 b 901 238 1001 410 964 313 m 981 167 b 969 176 981 167 976 171 b 1092 515 1046 268 1092 386 b 969 854 1092 644 1046 763 l 981 864 b 1106 515 1058 771 1106 649 b 981 167 1106 383 1058 261 m 254 236 b 154 515 192 313 154 408 b 253 793 154 621 192 718 b 264 783 256 790 260 788 b 168 515 204 711 168 617 b 264 246 168 413 204 318 l 254 236 m 464 425 b 435 515 446 450 435 481 b 464 606 435 549 446 581 b 475 596 468 603 472 599 b 449 515 458 574 449 546 b 475 436 449 486 458 458 l 464 425 m 506 463 b 489 515 494 478 489 496 b 506 568 489 535 494 553 b 515 558 508 564 513 561 b 503 515 508 546 503 531 b 515 472 503 500 508 485 l 506 463 m 542 568 b 578 581 551 576 564 581 b 614 568 592 581 604 576 b 607 560 610 564 607 560 b 578 569 599 565 589 569 b 549 560 567 569 557 567 m 524 588 b 578 607 539 600 557 607 b 631 588 597 607 615 600 b 622 578 628 585 625 582 b 578 594 610 589 594 594 b 533 578 561 594 546 588 m 506 608 b 578 635 525 625 551 635 b 650 608 606 635 631 625 b 640 597 644 603 640 597 b 578 621 624 613 601 621 b 515 597 554 621 532 613 m 400 728 b 578 794 447 769 510 794 b 756 726 646 794 708 769 b 747 717 757 726 747 717 b 578 781 701 757 642 781 b 410 717 514 781 454 757 m 578 333 b 463 375 533 333 493 349 l 472 386 b 578 347 501 363 539 347 b 682 386 618 347 654 363 l 692 376 b 578 333 661 350 622 333 m 578 396 b 504 422 550 396 525 406 l 514 433 b 578 410 532 419 554 410 b 640 433 601 410 622 418 l 650 422 b 578 396 631 406 606 396 m 578 424 b 522 443 557 424 539 431 l 532 453 b 578 436 546 443 561 436 b 622 453 594 436 610 443 l 632 443 b 578 424 617 431 597 424 m 464 654 b 578 697 494 681 535 697 b 692 656 621 697 661 682 l 682 644 b 578 683 654 668 618 683 b 474 644 539 683 503 669 m 435 688 b 578 740 474 721 524 740 b 719 686 632 740 682 719 l 711 676 b 578 726 675 708 629 726 b 444 676 528 726 481 707 m 847 829 b 578 933 776 894 682 933 b 308 831 475 933 381 894 l 299 840 b 578 947 374 907 471 947 b 857 840 685 947 782 907 l 847 829 m 229 919 b 578 1054 322 1004 444 1054 b 928 919 711 1054 835 1003 l 918 908 b 578 1040 828 990 708 1040 b 239 908 447 1040 329 990 m 707 413 b 742 515 728 440 742 476 b 706 619 742 554 728 590 l 717 629 b 756 515 742 597 756 558 b 717 403 756 472 742 433 "},"Æ":{"ha":1515,"x_min":0,"x_max":0,"o":"m 668 1029 l 1432 1029 l 1432 894 l 867 894 l 867 596 l 1418 596 l 1418 467 l 867 467 l 867 129 l 1438 129 l 1438 0 l 732 0 l 732 217 l 299 217 l 160 0 l 21 0 m 732 338 l 732 904 l 369 338 "},"w":{"ha":1233,"x_min":0,"x_max":0,"o":"m 18 772 l 160 772 l 360 189 l 551 772 l 685 772 l 876 190 l 1078 772 l 1215 772 l 943 -7 l 808 -7 l 617 568 l 425 -7 l 289 -7 "},"≈":{"ha":976,"x_min":0,"x_max":0,"o":"m 149 608 b 361 743 208 685 285 743 b 618 663 475 743 533 663 b 749 753 661 663 706 701 l 826 685 b 619 550 765 613 694 550 b 363 631 515 550 457 631 b 226 543 317 631 268 596 m 149 288 b 361 421 208 363 285 421 b 618 339 475 421 533 339 b 749 431 661 339 706 378 l 826 364 b 619 226 765 290 694 226 b 363 308 515 226 457 308 b 226 222 317 308 268 275 "},"Þ":{"ha":1000,"x_min":0,"x_max":0,"o":"m 117 1029 l 254 1029 l 254 869 l 579 869 b 943 549 858 869 943 761 b 575 213 943 338 861 213 l 254 213 l 254 0 l 117 0 m 579 342 b 803 544 739 342 803 396 b 576 742 803 696 742 742 l 254 742 l 254 342 "},"*":{"ha":811,"x_min":0,"x_max":0,"o":"m 364 615 l 144 479 l 90 576 l 319 694 l 90 814 l 144 911 l 364 772 l 351 1031 l 458 1031 l 447 772 l 667 911 l 721 814 l 490 694 l 721 576 l 667 479 l 447 617 l 458 361 l 351 361 "},"á":{"ha":875,"x_min":0,"x_max":0,"o":""},"Q":{"ha":1165,"x_min":0,"x_max":0,"o":"m 751 -260 b 478 -3 526 -260 467 -192 b 57 515 204 26 57 182 b 582 1046 57 888 243 1046 b 1107 515 922 1046 1107 888 b 613 -8 1107 153 933 0 b 751 -137 607 -111 631 -137 l 865 -137 l 865 -258 b 751 -260 850 -258 786 -260 m 582 114 b 967 513 860 114 967 257 b 582 911 967 768 860 911 b 199 513 304 911 199 768 b 582 114 199 257 304 114 "},"é":{"ha":833,"x_min":0,"x_max":0,"o":"m 503 1079 l 668 1079 l 422 851 l 297 851 m 442 -15 b 63 388 125 -15 63 164 b 439 790 63 610 131 790 b 764 335 757 790 768 569 l 193 335 b 442 101 201 194 250 101 b 688 178 567 101 628 133 l 760 83 b 442 -15 678 19 588 -15 m 435 671 b 194 454 258 671 206 585 l 636 454 b 435 671 629 576 618 671 "},"Ð":{"ha":1057,"x_min":0,"x_max":0,"o":"m 0 588 l 117 588 l 117 1029 l 461 1029 b 1001 515 853 1029 1001 915 b 446 0 1001 122 832 0 l 117 0 l 117 471 l 0 471 m 453 129 b 860 515 765 129 860 232 b 463 896 860 803 781 896 l 257 896 l 257 588 l 479 588 l 479 471 l 257 471 l 257 129 "},"—":{"ha":1294,"x_min":0,"x_max":0,"o":"m 67 499 l 1228 499 l 1228 372 l 67 372 "}," ":{"ha":328,"x_min":0,"x_max":0,"o":""},"ß":{"ha":917,"x_min":0,"x_max":0,"o":"m 100 744 b 457 1085 100 926 179 1085 b 788 813 685 1085 788 993 b 646 568 788 672 736 601 b 868 300 793 540 868 467 b 465 0 868 107 803 0 l 378 0 l 378 122 l 463 122 b 735 308 700 122 735 201 b 439 490 735 435 671 490 l 439 603 b 654 779 588 603 654 657 b 456 947 654 892 599 947 b 233 739 299 947 233 869 l 233 0 l 100 0 "},"•":{"ha":492,"x_min":0,"x_max":0,"o":"m 135 547 l 357 547 l 357 297 l 135 297 "},"i":{"ha":350,"x_min":0,"x_max":0,"o":"m 108 772 l 242 772 l 242 0 l 108 0 m 107 1029 l 243 1029 l 243 865 l 107 865 "},"Ô":{"ha":1165,"x_min":0,"x_max":0,"o":"m 507 1315 l 653 1315 l 865 1088 l 735 1088 l 578 1228 l 424 1088 l 294 1088 m 582 -17 b 57 515 253 -17 57 142 b 582 1046 57 888 253 1046 b 1107 515 911 1046 1107 888 b 582 -17 1107 142 911 -17 m 582 114 b 967 513 850 114 967 257 b 582 911 967 768 850 911 b 199 513 314 911 199 768 b 582 114 199 257 314 114 "}," ":{"ha":319,"x_min":0,"x_max":0,"o":""},"ﬃ":{"ha":1342,"x_min":0,"x_max":0,"o":"m 643 650 l 321 650 l 321 0 l 186 0 l 186 650 l 40 650 l 40 772 l 186 772 l 186 840 b 432 1092 186 993 239 1092 l 521 1092 l 521 974 l 449 974 b 321 840 346 974 321 918 l 321 772 l 643 772 l 643 840 b 889 1092 643 993 694 1092 l 979 1092 l 979 974 l 906 974 b 778 840 803 974 778 918 l 778 772 l 979 772 l 979 650 l 778 650 l 778 0 l 643 0 m 1100 772 l 1233 772 l 1233 0 l 1100 0 m 1099 1029 l 1235 1029 l 1235 865 l 1099 865 "},"q":{"ha":911,"x_min":0,"x_max":0,"o":"m 675 78 b 394 -14 624 11 549 -14 b 63 389 136 -14 63 153 b 399 790 63 625 138 790 b 692 697 565 790 644 761 l 717 782 l 811 774 l 811 -229 l 675 -229 m 424 110 b 675 389 606 110 675 186 b 424 663 675 593 610 663 b 200 389 246 663 200 558 b 424 110 200 219 246 110 "},"þ":{"ha":911,"x_min":0,"x_max":0,"o":"m 100 1078 l 235 1078 l 235 696 b 518 790 278 761 363 790 b 849 388 778 790 849 625 b 513 -14 849 153 775 -14 b 236 81 351 -14 275 17 l 236 -229 l 100 -229 m 489 110 b 711 383 664 110 711 214 b 489 661 711 553 667 661 b 236 383 307 661 236 589 b 489 110 236 179 303 110 "},"‡":{"ha":772,"x_min":0,"x_max":0,"o":"m 319 119 l 76 119 l 76 247 l 319 247 l 319 629 l 76 629 l 76 757 l 319 757 l 319 1078 l 453 1078 l 453 757 l 696 757 l 696 629 l 453 629 l 453 247 l 696 247 l 696 119 l 453 119 l 453 -231 l 319 -231 "},"ó":{"ha":888,"x_min":0,"x_max":0,"o":"m 531 1079 l 696 1079 l 450 851 l 325 851 m 443 -15 b 63 388 169 -15 63 124 b 443 790 63 651 169 790 b 825 388 717 790 825 651 b 443 -15 825 124 717 -15 m 443 107 b 688 385 625 107 688 207 b 443 661 688 563 625 661 b 199 385 261 661 199 563 b 443 107 199 207 261 107 "},"≤":{"ha":976,"x_min":0,"x_max":0,"o":"m 147 142 l 771 142 l 147 444 l 147 542 l 774 844 l 774 717 l 286 490 l 774 265 l 774 19 l 147 19 "},"≥":{"ha":976,"x_min":0,"x_max":0,"o":"m 203 265 l 690 490 l 203 717 l 203 844 l 828 542 l 828 444 l 206 142 l 828 142 l 828 19 l 203 19 "},"∂":{"ha":1156,"x_min":0,"x_max":0,"o":"m 175 167 b 50 515 97 260 50 382 b 175 863 50 647 97 769 b 185 854 175 863 179 860 b 64 515 110 763 64 644 b 186 176 64 386 110 268 b 175 167 179 171 175 167 m 317 293 b 238 515 268 353 238 431 b 315 738 238 600 267 676 b 326 728 319 735 322 731 b 251 515 281 671 251 596 b 326 303 251 435 279 360 b 317 293 324 299 319 296 m 367 338 b 304 515 328 386 304 447 b 367 693 304 582 328 644 b 378 683 371 690 374 686 b 318 515 340 638 318 579 b 378 347 318 451 340 393 b 367 338 374 344 371 340 m 439 401 b 400 515 414 433 400 472 b 439 628 400 558 414 597 b 449 618 442 625 446 622 b 414 515 428 590 414 554 b 450 411 414 476 428 440 b 439 401 446 408 443 404 m 485 444 b 463 515 471 464 463 489 b 485 586 463 542 471 567 b 496 576 489 583 492 579 b 476 515 483 558 476 538 b 496 454 476 493 483 472 b 485 444 492 451 489 449 m 525 481 b 515 515 519 490 515 503 b 525 550 515 528 519 540 b 533 543 531 546 533 543 b 526 515 529 535 526 525 b 533 488 526 506 529 496 b 525 481 533 488 531 485 m 578 83 b 299 190 469 83 372 124 b 308 200 299 190 308 201 b 578 97 381 136 475 97 b 846 200 681 97 775 136 b 856 189 849 196 853 193 b 578 83 782 124 685 83 m 578 450 b 540 463 564 450 551 454 b 549 471 543 464 549 471 b 578 461 557 465 567 461 b 607 471 589 461 599 464 b 614 463 607 471 610 468 b 578 450 604 454 592 450 m 669 443 b 660 453 667 447 664 450 b 679 515 672 471 679 493 b 660 576 679 539 672 560 b 669 586 660 576 671 586 b 693 515 685 567 693 542 b 669 443 693 489 685 464 m 406 374 b 357 515 375 413 357 463 b 407 657 357 569 375 618 l 417 647 b 371 515 389 611 371 565 b 417 383 371 465 389 419 b 406 374 414 381 410 376 m 578 -24 b 228 111 444 -24 321 28 l 238 122 b 578 -10 328 40 447 -10 b 917 121 708 -10 826 40 b 926 111 917 122 926 111 b 578 -24 833 26 711 -24 m 578 168 b 354 253 492 168 414 200 l 364 264 b 578 182 421 213 496 182 b 790 264 660 182 735 213 b 800 253 793 260 797 257 b 578 168 742 200 664 168 m 578 236 b 399 304 510 236 447 263 l 408 314 b 578 250 454 274 513 250 b 746 314 642 250 701 274 b 756 303 749 310 753 307 b 578 236 708 261 646 236 m 578 290 b 435 343 524 290 474 311 l 444 354 b 578 304 481 324 528 304 b 711 354 628 304 675 324 b 719 343 714 351 717 347 b 578 290 682 311 632 290 m 578 368 b 486 401 543 368 511 381 l 496 413 b 578 382 518 393 547 382 b 658 413 608 382 636 393 b 668 401 661 408 665 406 b 578 368 643 381 613 368 m 497 618 b 486 629 492 622 488 628 b 578 663 511 650 543 663 b 669 629 613 663 644 650 l 658 618 b 578 649 636 638 608 649 b 497 618 547 649 519 638 m 792 767 b 578 849 735 818 660 849 b 365 768 496 849 422 818 l 356 778 b 578 863 415 831 493 863 b 801 778 664 863 742 831 b 792 767 799 774 794 769 m 631 481 b 622 488 625 485 622 488 b 629 515 626 496 629 506 b 622 543 629 525 626 535 l 631 550 b 640 515 636 540 640 528 b 631 481 640 503 636 490 m 650 463 b 639 472 646 467 643 469 b 653 515 647 485 653 500 b 639 558 653 531 647 546 l 650 568 b 667 515 661 553 667 535 b 650 463 667 496 661 478 m 692 425 b 681 435 688 428 683 432 b 707 515 697 457 707 485 b 681 596 707 546 697 574 l 690 606 b 721 515 710 581 721 549 b 692 425 721 482 710 451 m 750 374 b 739 383 746 376 743 381 b 785 515 767 419 785 465 b 738 647 785 565 767 611 l 749 657 b 799 515 781 618 799 569 b 750 374 799 461 781 413 m 789 338 b 778 347 786 340 782 344 b 838 515 815 393 838 451 b 778 683 838 579 815 638 l 789 693 b 851 515 828 644 851 583 b 789 338 851 447 828 386 m 839 293 b 828 303 839 293 835 296 b 904 515 876 361 904 435 b 828 728 904 596 876 671 l 839 738 b 918 515 889 678 918 600 b 839 293 918 431 889 353 m 901 238 b 892 246 899 240 894 243 b 988 515 951 319 988 413 b 890 783 988 618 951 711 l 901 793 b 1001 515 964 718 1001 621 b 901 238 1001 410 964 313 m 981 167 b 969 176 981 167 976 171 b 1092 515 1046 268 1092 386 b 969 854 1092 644 1046 763 l 981 864 b 1106 515 1058 771 1106 649 b 981 167 1106 383 1058 261 m 254 236 b 154 515 192 313 154 408 b 253 793 154 621 192 718 b 264 783 256 790 260 788 b 168 515 204 711 168 617 b 264 246 168 413 204 318 l 254 236 m 464 425 b 435 515 446 450 435 481 b 464 606 435 549 446 581 b 475 596 468 603 472 599 b 449 515 458 574 449 546 b 475 436 449 486 458 458 l 464 425 m 506 463 b 489 515 494 478 489 496 b 506 568 489 535 494 553 b 515 558 508 564 513 561 b 503 515 508 546 503 531 b 515 472 503 500 508 485 l 506 463 m 542 568 b 578 581 551 576 564 581 b 614 568 592 581 604 576 b 607 560 610 564 607 560 b 578 569 599 565 589 569 b 549 560 567 569 557 567 m 524 588 b 578 607 539 600 557 607 b 631 588 597 607 615 600 b 622 578 628 585 625 582 b 578 594 610 589 594 594 b 533 578 561 594 546 588 m 506 608 b 578 635 525 625 551 635 b 650 608 606 635 631 625 b 640 597 644 603 640 597 b 578 621 624 613 601 621 b 515 597 554 621 532 613 m 400 728 b 578 794 447 769 510 794 b 756 726 646 794 708 769 b 747 717 757 726 747 717 b 578 781 701 757 642 781 b 410 717 514 781 454 757 m 578 333 b 463 375 533 333 493 349 l 472 386 b 578 347 501 363 539 347 b 682 386 618 347 654 363 l 692 376 b 578 333 661 350 622 333 m 578 396 b 504 422 550 396 525 406 l 514 433 b 578 410 532 419 554 410 b 640 433 601 410 622 418 l 650 422 b 578 396 631 406 606 396 m 578 424 b 522 443 557 424 539 431 l 532 453 b 578 436 546 443 561 436 b 622 453 594 436 610 443 l 632 443 b 578 424 617 431 597 424 m 464 654 b 578 697 494 681 535 697 b 692 656 621 697 661 682 l 682 644 b 578 683 654 668 618 683 b 474 644 539 683 503 669 m 435 688 b 578 740 474 721 524 740 b 719 686 632 740 682 719 l 711 676 b 578 726 675 708 629 726 b 444 676 528 726 481 707 m 847 829 b 578 933 776 894 682 933 b 308 831 475 933 381 894 l 299 840 b 578 947 374 907 471 947 b 857 840 685 947 782 907 l 847 829 m 229 919 b 578 1054 322 1004 444 1054 b 928 919 711 1054 835 1003 l 918 908 b 578 1040 828 990 708 1040 b 239 908 447 1040 329 990 m 707 413 b 742 515 728 440 742 476 b 706 619 742 554 728 590 l 717 629 b 756 515 742 597 756 558 b 717 403 756 472 742 433 "},"◊":{"ha":876,"x_min":0,"x_max":0,"o":"m 54 515 l 369 1029 l 501 1029 l 818 515 l 501 0 l 368 0 m 681 511 l 433 919 l 189 515 l 436 110 "},"Δ":{"ha":1156,"x_min":0,"x_max":0,"o":"m 175 167 b 50 515 97 260 50 382 b 175 863 50 647 97 769 b 185 854 175 863 179 860 b 64 515 110 763 64 644 b 186 176 64 386 110 268 b 175 167 179 171 175 167 m 317 293 b 238 515 268 353 238 431 b 315 738 238 600 267 676 b 326 728 319 735 322 731 b 251 515 281 671 251 596 b 326 303 251 435 279 360 b 317 293 324 299 319 296 m 367 338 b 304 515 328 386 304 447 b 367 693 304 582 328 644 b 378 683 371 690 374 686 b 318 515 340 638 318 579 b 378 347 318 451 340 393 b 367 338 374 344 371 340 m 439 401 b 400 515 414 433 400 472 b 439 628 400 558 414 597 b 449 618 442 625 446 622 b 414 515 428 590 414 554 b 450 411 414 476 428 440 b 439 401 446 408 443 404 m 485 444 b 463 515 471 464 463 489 b 485 586 463 542 471 567 b 496 576 489 583 492 579 b 476 515 483 558 476 538 b 496 454 476 493 483 472 b 485 444 492 451 489 449 m 525 481 b 515 515 519 490 515 503 b 525 550 515 528 519 540 b 533 543 531 546 533 543 b 526 515 529 535 526 525 b 533 488 526 506 529 496 b 525 481 533 488 531 485 m 578 83 b 299 190 469 83 372 124 b 308 200 299 190 308 201 b 578 97 381 136 475 97 b 846 200 681 97 775 136 b 856 189 849 196 853 193 b 578 83 782 124 685 83 m 578 450 b 540 463 564 450 551 454 b 549 471 543 464 549 471 b 578 461 557 465 567 461 b 607 471 589 461 599 464 b 614 463 607 471 610 468 b 578 450 604 454 592 450 m 669 443 b 660 453 667 447 664 450 b 679 515 672 471 679 493 b 660 576 679 539 672 560 b 669 586 660 576 671 586 b 693 515 685 567 693 542 b 669 443 693 489 685 464 m 406 374 b 357 515 375 413 357 463 b 407 657 357 569 375 618 l 417 647 b 371 515 389 611 371 565 b 417 383 371 465 389 419 b 406 374 414 381 410 376 m 578 -24 b 228 111 444 -24 321 28 l 238 122 b 578 -10 328 40 447 -10 b 917 121 708 -10 826 40 b 926 111 917 122 926 111 b 578 -24 833 26 711 -24 m 578 168 b 354 253 492 168 414 200 l 364 264 b 578 182 421 213 496 182 b 790 264 660 182 735 213 b 800 253 793 260 797 257 b 578 168 742 200 664 168 m 578 236 b 399 304 510 236 447 263 l 408 314 b 578 250 454 274 513 250 b 746 314 642 250 701 274 b 756 303 749 310 753 307 b 578 236 708 261 646 236 m 578 290 b 435 343 524 290 474 311 l 444 354 b 578 304 481 324 528 304 b 711 354 628 304 675 324 b 719 343 714 351 717 347 b 578 290 682 311 632 290 m 578 368 b 486 401 543 368 511 381 l 496 413 b 578 382 518 393 547 382 b 658 413 608 382 636 393 b 668 401 661 408 665 406 b 578 368 643 381 613 368 m 497 618 b 486 629 492 622 488 628 b 578 663 511 650 543 663 b 669 629 613 663 644 650 l 658 618 b 578 649 636 638 608 649 b 497 618 547 649 519 638 m 792 767 b 578 849 735 818 660 849 b 365 768 496 849 422 818 l 356 778 b 578 863 415 831 493 863 b 801 778 664 863 742 831 b 792 767 799 774 794 769 m 631 481 b 622 488 625 485 622 488 b 629 515 626 496 629 506 b 622 543 629 525 626 535 l 631 550 b 640 515 636 540 640 528 b 631 481 640 503 636 490 m 650 463 b 639 472 646 467 643 469 b 653 515 647 485 653 500 b 639 558 653 531 647 546 l 650 568 b 667 515 661 553 667 535 b 650 463 667 496 661 478 m 692 425 b 681 435 688 428 683 432 b 707 515 697 457 707 485 b 681 596 707 546 697 574 l 690 606 b 721 515 710 581 721 549 b 692 425 721 482 710 451 m 750 374 b 739 383 746 376 743 381 b 785 515 767 419 785 465 b 738 647 785 565 767 611 l 749 657 b 799 515 781 618 799 569 b 750 374 799 461 781 413 m 789 338 b 778 347 786 340 782 344 b 838 515 815 393 838 451 b 778 683 838 579 815 638 l 789 693 b 851 515 828 644 851 583 b 789 338 851 447 828 386 m 839 293 b 828 303 839 293 835 296 b 904 515 876 361 904 435 b 828 728 904 596 876 671 l 839 738 b 918 515 889 678 918 600 b 839 293 918 431 889 353 m 901 238 b 892 246 899 240 894 243 b 988 515 951 319 988 413 b 890 783 988 618 951 711 l 901 793 b 1001 515 964 718 1001 621 b 901 238 1001 410 964 313 m 981 167 b 969 176 981 167 976 171 b 1092 515 1046 268 1092 386 b 969 854 1092 644 1046 763 l 981 864 b 1106 515 1058 771 1106 649 b 981 167 1106 383 1058 261 m 254 236 b 154 515 192 313 154 408 b 253 793 154 621 192 718 b 264 783 256 790 260 788 b 168 515 204 711 168 617 b 264 246 168 413 204 318 l 254 236 m 464 425 b 435 515 446 450 435 481 b 464 606 435 549 446 581 b 475 596 468 603 472 599 b 449 515 458 574 449 546 b 475 436 449 486 458 458 l 464 425 m 506 463 b 489 515 494 478 489 496 b 506 568 489 535 494 553 b 515 558 508 564 513 561 b 503 515 508 546 503 531 b 515 472 503 500 508 485 l 506 463 m 542 568 b 578 581 551 576 564 581 b 614 568 592 581 604 576 b 607 560 610 564 607 560 b 578 569 599 565 589 569 b 549 560 567 569 557 567 m 524 588 b 578 607 539 600 557 607 b 631 588 597 607 615 600 b 622 578 628 585 625 582 b 578 594 610 589 594 594 b 533 578 561 594 546 588 m 506 608 b 578 635 525 625 551 635 b 650 608 606 635 631 625 b 640 597 644 603 640 597 b 578 621 624 613 601 621 b 515 597 554 621 532 613 m 400 728 b 578 794 447 769 510 794 b 756 726 646 794 708 769 b 747 717 757 726 747 717 b 578 781 701 757 642 781 b 410 717 514 781 454 757 m 578 333 b 463 375 533 333 493 349 l 472 386 b 578 347 501 363 539 347 b 682 386 618 347 654 363 l 692 376 b 578 333 661 350 622 333 m 578 396 b 504 422 550 396 525 406 l 514 433 b 578 410 532 419 554 410 b 640 433 601 410 622 418 l 650 422 b 578 396 631 406 606 396 m 578 424 b 522 443 557 424 539 431 l 532 453 b 578 436 546 443 561 436 b 622 453 594 436 610 443 l 632 443 b 578 424 617 431 597 424 m 464 654 b 578 697 494 681 535 697 b 692 656 621 697 661 682 l 682 644 b 578 683 654 668 618 683 b 474 644 539 683 503 669 m 435 688 b 578 740 474 721 524 740 b 719 686 632 740 682 719 l 711 676 b 578 726 675 708 629 726 b 444 676 528 726 481 707 m 847 829 b 578 933 776 894 682 933 b 308 831 475 933 381 894 l 299 840 b 578 947 374 907 471 947 b 857 840 685 947 782 907 l 847 829 m 229 919 b 578 1054 322 1004 444 1054 b 928 919 711 1054 835 1003 l 918 908 b 578 1040 828 990 708 1040 b 239 908 447 1040 329 990 m 707 413 b 742 515 728 440 742 476 b 706 619 742 554 728 590 l 717 629 b 756 515 742 597 756 558 b 717 403 756 472 742 433 "},"∞":{"ha":1206,"x_min":0,"x_max":0,"o":"m 342 250 b 89 478 175 250 89 336 b 342 707 89 621 178 707 b 606 556 451 707 532 635 b 865 707 678 635 760 707 b 1117 478 1007 707 1117 644 b 865 250 1117 314 1004 250 b 601 400 756 250 674 322 b 342 250 528 322 447 250 m 344 357 b 535 476 414 357 474 411 b 344 600 474 544 415 600 b 199 478 251 600 199 557 b 344 357 199 400 249 357 m 864 600 b 674 479 794 600 735 546 b 864 357 733 413 793 357 b 1007 478 943 357 1007 386 b 864 600 1007 571 944 600 "},"±":{"ha":976,"x_min":0,"x_max":0,"o":"m 421 425 l 143 425 l 143 554 l 421 554 l 421 831 l 554 831 l 554 554 l 833 554 l 833 425 l 554 425 l 554 149 l 421 149 m 143 146 l 833 146 l 833 19 l 143 19 "},"¤":{"ha":953,"x_min":0,"x_max":0,"o":"m 50 682 l 214 682 b 593 1046 244 918 357 1046 b 856 990 721 1046 786 1026 l 792 874 b 597 918 739 903 679 918 b 344 682 433 918 367 829 l 692 682 l 692 567 l 335 567 l 335 521 l 335 465 l 692 465 l 692 350 l 344 350 b 594 107 368 194 436 107 b 793 157 667 107 729 118 l 861 50 b 588 -17 785 3 707 -17 b 214 350 349 -17 243 118 l 50 350 l 50 465 l 204 465 l 204 518 l 204 567 l 50 567 "},"≠":{"ha":976,"x_min":0,"x_max":0,"o":"m 331 271 l 151 271 l 151 394 l 388 394 l 476 585 l 151 585 l 151 707 l 529 707 l 601 863 l 715 863 l 642 707 l 826 707 l 826 585 l 586 585 l 497 394 l 826 394 l 826 271 l 446 271 l 375 117 l 258 117 "},"œ":{"ha":1458,"x_min":0,"x_max":0,"o":"m 1067 -15 b 754 119 893 -15 803 38 b 443 -15 699 32 601 -15 b 63 388 164 -15 63 124 b 443 790 63 651 164 790 b 754 654 601 790 700 742 b 1064 790 803 736 894 790 b 1389 335 1390 790 1394 569 l 819 335 b 1067 101 826 194 875 101 b 1313 178 1192 101 1253 133 l 1386 83 b 1067 -15 1303 19 1217 -15 m 443 107 b 688 385 625 107 688 207 b 443 661 688 563 625 661 b 199 385 261 661 199 563 b 443 107 199 207 261 107 m 1060 671 b 821 453 883 671 832 583 l 1261 453 b 1060 671 1254 575 1243 671 "},"æ":{"ha":1369,"x_min":0,"x_max":0,"o":"m 979 -15 b 661 126 800 -15 708 40 b 319 -14 597 10 490 -14 b 54 219 135 -14 54 63 b 564 503 54 439 178 503 l 606 503 b 413 664 603 614 576 664 b 185 599 315 664 233 628 l 114 704 b 425 790 165 739 288 790 b 686 683 578 790 651 753 b 975 790 738 750 826 790 b 1300 336 1303 790 1306 571 l 731 336 b 979 101 738 194 785 101 b 1224 178 1103 101 1164 133 l 1297 83 b 979 -15 1214 19 1128 -15 m 354 103 b 606 340 532 103 606 175 l 606 388 l 571 388 b 183 229 258 388 183 356 b 354 103 183 147 221 103 m 972 671 b 732 453 794 671 743 583 l 1172 453 b 972 671 1167 576 1154 671 "},"g":{"ha":849,"x_min":0,"x_max":0,"o":"m 410 282 b 282 292 361 282 319 285 b 264 244 271 278 264 261 b 418 192 264 199 296 192 b 796 -12 707 192 796 143 b 406 -249 796 -178 689 -249 b 38 -57 146 -249 38 -212 b 185 132 38 31 69 108 b 142 225 154 153 142 183 b 176 332 142 263 154 301 b 82 531 113 372 82 438 b 410 790 82 703 179 790 b 460 789 426 790 443 790 l 764 832 l 764 721 l 639 721 b 739 531 703 686 739 629 b 410 282 739 360 638 282 m 410 -142 b 660 -19 613 -142 660 -99 b 410 78 660 61 597 78 b 174 -35 200 78 174 29 b 410 -142 174 -117 240 -142 m 410 393 b 606 531 553 393 606 435 b 410 668 606 629 542 668 b 213 531 267 668 213 629 b 410 393 213 435 267 393 "},"®":{"ha":1147,"x_min":0,"x_max":0,"o":"m 571 -17 b 57 515 226 -17 57 207 b 571 1047 57 824 226 1047 b 1088 515 917 1047 1088 824 b 571 -17 1088 207 917 -17 m 571 43 b 1028 515 888 43 1028 240 b 571 988 1028 790 888 988 b 118 515 254 988 118 790 b 571 43 118 240 254 43 m 601 443 l 414 443 l 414 178 l 324 178 l 324 847 l 621 847 b 851 647 799 847 851 776 b 692 449 851 538 813 468 l 850 178 l 754 178 m 619 524 b 763 644 717 524 763 550 b 618 764 763 738 719 764 l 414 764 l 414 524 "},"ﬄ":{"ha":1415,"x_min":0,"x_max":0,"o":"m 643 650 l 321 650 l 321 0 l 186 0 l 186 650 l 40 650 l 40 772 l 186 772 l 186 840 b 432 1092 186 993 239 1092 l 521 1092 l 521 974 l 449 974 b 321 840 346 974 321 918 l 321 772 l 643 772 l 643 840 b 889 1092 643 993 694 1092 l 979 1092 l 979 974 l 906 974 b 778 840 803 974 778 918 l 778 772 l 979 772 l 979 650 l 778 650 l 778 0 l 643 0 m 1274 -1 b 1100 200 1144 -1 1100 53 l 1100 1078 l 1233 1078 l 1233 215 b 1318 119 1233 143 1244 119 l 1350 119 l 1350 1 b 1274 -1 1339 0 1307 -1 "}}}
